<svg width="43" height="50" viewBox="0 0 43 50" fill="none" xmlns="http://www.w3.org/2000/svg">
<path d="M5.19047 2.52722C4.64561 2.52722 4.19379 2.97546 4.19379 3.51599V43.014C4.19379 43.2118 4.24694 43.3964 4.36654 43.5677C4.43299 43.6732 4.52601 43.7523 4.61904 43.8314L8.40642 46.4681C8.75193 46.7054 9.20376 46.7054 9.54928 46.4681L12.7652 44.2269L15.9812 46.4681C16.3267 46.7054 16.7785 46.7054 17.124 46.4681L20.34 44.2269L23.556 46.4681C23.7287 46.5868 23.928 46.6527 24.1274 46.6527C24.3267 46.6527 24.5261 46.5868 24.6988 46.4681L27.9148 44.2269L31.1307 46.4681C31.4762 46.7054 31.9281 46.7054 32.2736 46.4681L36.061 43.8314C36.1938 43.7391 36.2869 43.6337 36.3666 43.5018C36.4463 43.3568 36.4862 43.1986 36.4862 43.0272V3.51599C36.4862 2.97546 36.0344 2.52722 35.4895 2.52722H5.19047ZM34.4928 42.4999L31.7021 44.4379L28.4862 42.1967C28.3134 42.078 28.1141 42.0121 27.9148 42.0121C27.7154 42.0121 27.5161 42.078 27.3433 42.1967L24.1274 44.4379L20.9114 42.1967C20.5659 41.9594 20.1141 41.9594 19.7686 42.1967L16.5526 44.4379L13.3367 42.1967C12.9911 41.9594 12.5393 41.9594 12.1938 42.1967L8.97785 44.4379L6.18715 42.4999V4.50476H34.4928V42.4999Z" fill="#081A70"/>
<path d="M11.1705 12.5335H12.433L15.0111 19.1385C15.1573 19.5208 15.5294 19.7713 15.9413 19.7713H24.7387C25.1506 19.7713 25.5227 19.5208 25.6689 19.1385L28.247 12.5335H29.5094C30.0543 12.5335 30.5061 12.0853 30.5061 11.5447C30.5061 11.0042 30.0543 10.556 29.5094 10.556H26.227L25.2835 7.65558C25.1108 7.14142 24.5526 6.85139 24.0343 7.02277C23.5161 7.19416 23.2237 7.74787 23.3965 8.26203L24.1407 10.556H16.5659L17.3101 8.26203C17.4828 7.74787 17.1905 7.18098 16.6722 7.02277C16.1539 6.85139 15.5825 7.14142 15.423 7.65558L14.4795 10.556H11.1705C10.6257 10.556 10.1739 11.0042 10.1739 11.5447C10.1739 12.0853 10.6257 12.5335 11.1705 12.5335ZM24.0609 17.7938H16.6191L14.5592 12.5335H15.1705H25.4829H26.0942L24.0609 17.7938Z" fill="#081A70"/>
<path d="M24.4729 22.7113H11.7951C11.2503 22.7113 10.7985 23.1595 10.7985 23.7001C10.7985 24.2406 11.2503 24.6888 11.7951 24.6888H24.4729C25.0178 24.6888 25.4696 24.2406 25.4696 23.7001C25.4696 23.1595 25.0178 22.7113 24.4729 22.7113Z" fill="#081A70"/>
<path d="M27.3035 23.7001C27.3035 24.2406 27.7553 24.6888 28.3001 24.6888H30.8118C31.3566 24.6888 31.8085 24.2406 31.8085 23.7001C31.8085 23.1595 31.3566 22.7113 30.8118 22.7113H28.3001C27.7553 22.7113 27.3035 23.1595 27.3035 23.7001Z" fill="#081A70"/>
<path d="M24.4729 28.1166H11.7951C11.2503 28.1166 10.7985 28.5648 10.7985 29.1053C10.7985 29.6459 11.2503 30.0941 11.7951 30.0941H24.4729C25.0178 30.0941 25.4696 29.6459 25.4696 29.1053C25.4696 28.5648 25.0178 28.1166 24.4729 28.1166Z" fill="#081A70"/>
<path d="M30.8118 28.1166H28.3001C27.7553 28.1166 27.3035 28.5648 27.3035 29.1053C27.3035 29.6459 27.7553 30.0941 28.3001 30.0941H30.8118C31.3566 30.0941 31.8085 29.6459 31.8085 29.1053C31.8085 28.5648 31.3566 28.1166 30.8118 28.1166Z" fill="#081A70"/>
<path d="M24.4729 33.5087H11.7951C11.2503 33.5087 10.7985 33.9569 10.7985 34.4974C10.7985 35.038 11.2503 35.4862 11.7951 35.4862H24.4729C25.0178 35.4862 25.4696 35.038 25.4696 34.4974C25.4696 33.9569 25.0178 33.5087 24.4729 33.5087Z" fill="#081A70"/>
<path d="M30.8118 33.5087H28.3001C27.7553 33.5087 27.3035 33.9569 27.3035 34.4974C27.3035 35.038 27.7553 35.4862 28.3001 35.4862H30.8118C31.3566 35.4862 31.8085 35.038 31.8085 34.4974C31.8085 33.9569 31.3566 33.5087 30.8118 33.5087Z" fill="#081A70"/>
</svg>
