<svg width="58" height="42" viewBox="0 0 58 42" fill="none" xmlns="http://www.w3.org/2000/svg">
<path d="M29.928 15.0891C29.6767 15.097 29.435 15.2034 29.2571 15.3886L24.157 20.5706L21.0153 17.3786C20.1357 16.4447 18.7147 17.887 19.633 18.7815L23.4668 22.6789C23.8477 23.0671 24.4663 23.0671 24.8491 22.6789L30.6395 16.7934C31.2775 16.1629 30.8077 15.0891 29.9299 15.0891H29.928ZM0.966667 22.9706H6.76667C7.3022 22.9706 7.73333 23.4099 7.73333 23.9557C7.73333 24.5015 7.3022 24.9409 6.76667 24.9409H0.966667C0.431133 24.9409 0 24.5015 0 23.9557C0 23.4099 0.431133 22.9706 0.966667 22.9706ZM0.966667 15.0891H6.76667C7.3022 15.0891 7.73333 15.5285 7.73333 16.0743C7.73333 16.62 7.3022 17.0594 6.76667 17.0594H0.966667C0.431133 17.0594 0 16.62 0 16.0743C0 15.5285 0.431133 15.0891 0.966667 15.0891ZM0.966667 7.20759H6.76667C7.3022 7.20759 7.73333 7.64698 7.73333 8.19277C7.73333 8.73856 7.3022 9.17796 6.76667 9.17796H0.966667C0.431133 9.17796 0 8.73856 0 8.19277C0 7.64698 0.431133 7.20759 0.966667 7.20759ZM47.3667 28.8817C44.7083 28.8817 42.5333 31.0983 42.5333 33.8076C42.5333 36.5168 44.7083 38.7335 47.3667 38.7335C50.025 38.7335 52.2 36.5168 52.2 33.8076C52.2 31.0983 50.025 28.8817 47.3667 28.8817ZM47.3667 30.852C48.9791 30.852 50.2667 32.1643 50.2667 33.8076C50.2667 35.4509 48.9791 36.7631 47.3667 36.7631C45.7543 36.7631 44.4667 35.4509 44.4667 33.8076C44.4667 32.1643 45.7543 30.852 47.3667 30.852ZM22.2333 28.8817C19.575 28.8817 17.4 31.0983 17.4 33.8076C17.4 36.5168 19.575 38.7335 22.2333 38.7335C24.8917 38.7335 27.0667 36.5168 27.0667 33.8076C27.0667 31.0983 24.8917 28.8817 22.2333 28.8817ZM22.2333 30.852C23.8457 30.852 25.1333 32.1643 25.1333 33.8076C25.1333 35.4509 23.8457 36.7631 22.2333 36.7631C20.6209 36.7631 19.3333 35.4509 19.3333 33.8076C19.3333 32.1643 20.6209 30.852 22.2333 30.852ZM12.5667 3.26685C10.9775 3.26685 9.66667 4.60276 9.66667 6.2224V27.8965C9.66667 29.5161 10.9775 30.852 12.5667 30.852H16.4333C17.7403 30.8717 17.7403 28.862 16.4333 28.8817H12.5667C12.0137 28.8817 11.6 28.46 11.6 27.8965V6.2224C11.6 5.65888 12.0137 5.23722 12.5667 5.23722H37.7C38.2529 5.23722 38.6667 5.65888 38.6667 6.2224V28.8817H28.0333C26.7573 28.8817 26.7805 30.8717 28.0333 30.852H41.5667C42.8427 30.852 42.8311 28.8817 41.5667 28.8817H40.6V11.1483H48.7722L56.0667 22.7656V27.8965C56.0667 28.46 55.6529 28.8817 55.1 28.8817H53.1667C51.9023 28.8817 51.9023 30.852 53.1667 30.852H55.1C56.6892 30.852 58 29.5161 58 27.8965V22.478C58 22.2908 57.9478 22.1036 57.8492 21.946L50.1159 9.63114C49.938 9.34938 49.6325 9.17796 49.3 9.17796H40.6V6.2224C40.6 4.60276 39.2892 3.26685 37.7 3.26685H12.5667Z" fill="#081A70"/>
</svg>
