<svg width="59" height="58" viewBox="0 0 59 58" fill="none" xmlns="http://www.w3.org/2000/svg">
<path d="M43.3265 33.3807H42.1075V34.5995H43.3265V33.3807Z" fill="#081A70"/>
<path d="M48.3118 29.5973H47.0929V30.8161H48.3118V29.5973Z" fill="#081A70"/>
<path d="M39.6038 20.6208H38.3849V21.8396H39.6038V20.6208Z" fill="#081A70"/>
<path d="M42.394 25.3359H41.1751V26.5547H42.394V25.3359Z" fill="#081A70"/>
<path d="M47.7025 38.0511H46.4836V39.2699H47.7025V38.0511Z" fill="#081A70"/>
<path d="M16.4687 38.3354L15.6068 37.4736L14.745 38.3356L15.6069 39.1974L16.4687 38.3354Z" fill="#081A70"/>
<path d="M15.6072 48.3954L14.7454 49.2572L15.6072 50.119L16.469 49.2572L15.6072 48.3954Z" fill="#081A70"/>
<path d="M15.6076 28.368L16.4695 27.5061L15.6076 26.6442L14.7457 27.5061L15.6076 28.368Z" fill="#081A70"/>
<path d="M10.1955 32.0579L9.33368 32.9198L10.1956 33.7816L11.0574 32.9197L10.1955 32.0579Z" fill="#081A70"/>
<path d="M21.065 33.7809L21.9268 32.9191L21.065 32.0573L20.2032 32.9191L21.065 33.7809Z" fill="#081A70"/>
<path d="M10.1939 44.8669L11.0557 44.0051L10.1939 43.1433L9.33211 44.0051L10.1939 44.8669Z" fill="#081A70"/>
<path d="M20.2027 44.0054L21.0645 44.8672L21.9263 44.0054L21.0645 43.1436L20.2027 44.0054Z" fill="#081A70"/>
<path d="M36.4679 14.8615H35.9015V17.6233V30.6646H37.0343V18.7671C44.6959 19.0653 50.8365 25.3913 50.8365 33.1247C50.8365 38.4047 47.9346 43.234 43.3537 45.7374C43.5121 44.9854 43.6221 44.2806 43.665 43.6845C43.8173 41.5778 43.1469 39.4913 41.826 37.9601C41.0056 37.0091 40.0045 36.3372 38.9086 35.9805C39.8369 34.4584 39.6911 32.533 39.6832 32.4386L39.6433 31.9614L39.1661 31.9213C39.0558 31.912 36.4473 31.7118 34.9006 33.2588C34.6543 33.5051 34.4335 33.7609 34.2381 34.0206C33.9389 32.3139 33.1148 30.713 31.8729 29.4873L31.0773 30.2935C32.4469 31.6452 33.2325 33.5241 33.2325 35.4483V36.3212C32.5265 35.9704 31.7769 35.7615 30.998 35.7022C30.8467 35.6905 30.6938 35.6848 30.5433 35.6848C28.7317 35.6848 27.037 36.4929 25.7714 37.9598C25.0699 38.7731 24.5541 39.7436 24.2453 40.7897L21.7882 38.3322L26.0753 34.0451V35.5544H27.2081V30.1192C27.2081 27.7439 26.2741 25.5184 24.5782 23.8529C23.421 22.716 22.0011 21.9389 20.4581 21.5747C20.5548 14.847 23.7324 12.2632 23.7631 12.2391L25.0776 11.2243H23.417C22.3006 11.2243 21.2788 11.3632 20.3554 11.6358C20.9316 5.97874 23.6749 3.75458 23.7019 3.73328L25.0166 2.71851H23.3559C18.8176 2.71851 16.541 4.90008 15.3998 7.04596C14.0841 5.4615 12.1459 4.65754 9.61983 4.65754H7.95969L9.27375 5.67231C9.28961 5.68455 10.702 6.80535 11.5071 9.61813C10.25 9.17021 8.8281 8.94195 7.24421 8.94195H5.58362L6.89802 9.95672C6.93234 9.98312 10.3313 12.6837 10.9193 19.7526L12.0481 19.6587C11.6252 14.5734 9.82555 11.5889 8.64459 10.143C11.0588 10.3867 12.9736 11.2837 14.35 12.8184C16.8857 15.6459 16.942 19.9094 16.8816 21.338H12.6506C10.341 21.338 8.15975 22.2277 6.50901 23.8432C4.80583 25.5084 3.86786 27.7375 3.86786 30.1195V46.5001C3.86786 48.8936 4.81398 51.1307 6.53178 52.7992C8.17934 54.4 10.3524 55.2817 12.6507 55.2817H18.4269C20.7294 55.2817 22.9056 54.3966 24.5539 52.7897C25.0814 52.2764 25.5366 51.7058 25.9166 51.0857C27.1825 53.8703 28.7125 55.2812 30.4718 55.2812C31.5787 55.2812 32.6191 54.5943 33.5072 53.9502C33.6836 53.8224 33.9112 53.8259 34.0871 53.9591C34.8243 54.517 35.8341 55.2812 36.9877 55.2812C38.8453 55.2812 40.4715 53.7028 41.8247 50.5889C45.4428 49.4792 48.6937 47.2142 51.0011 44.1876C53.442 40.9863 54.7324 37.1609 54.7324 33.1249C54.7324 23.0543 46.539 14.8615 36.4679 14.8615ZM14.2057 11.1234C13.7757 10.7726 13.3138 10.4624 12.8184 10.1959C12.374 8.14298 11.6072 6.74758 10.9795 5.888C12.6961 6.14923 14.0011 6.9337 14.8728 8.22896C14.5001 9.24113 14.3045 10.2532 14.2057 11.1234ZM35.7016 34.0599C36.5233 33.2383 37.8395 33.0717 38.5597 33.046C38.5367 33.714 38.3909 34.8931 37.7072 35.7207C37.4918 35.6973 37.274 35.6849 37.0543 35.6849C36.9041 35.6849 36.7509 35.6907 36.5996 35.7023C35.8287 35.7611 35.0868 35.9665 34.3873 36.3108C34.4855 35.6908 34.9186 34.843 35.7016 34.0599ZM20.9875 37.5313L16.3486 32.8919L20.9878 28.2526L25.627 32.8916L20.9875 37.5313ZM14.7461 43.7725L10.1064 48.4123L5.46716 43.7732L10.1069 39.1333L14.7461 43.7725ZM5.46784 32.8922L10.1078 28.2523L14.7467 32.8919L10.1069 37.5315L5.46784 32.8922ZM10.9079 38.3324L15.5476 33.6928L20.1864 38.3322L15.547 42.9716L10.9079 38.3324ZM26.0755 30.1193V31.7381L21.7888 27.4515L24.1697 25.0707C25.4014 26.4676 26.0755 28.2388 26.0755 30.1193ZM15.2604 12.1387C15.3072 11.1365 15.4836 9.73605 16.0297 8.3752C17.078 5.7694 19.0741 4.2785 21.9726 3.93062C20.9485 5.24287 19.4948 7.8148 19.1776 12.0803C18.6366 12.3354 18.138 12.6469 17.6844 13.015L18.3982 13.8947C19.3637 13.1113 20.5838 12.6244 22.0365 12.4406C20.9626 13.8331 19.4286 16.6394 19.3266 21.384C19.0294 21.3538 18.7293 21.3377 18.4268 21.3377H18.0187C18.0902 19.7202 18.0049 15.2695 15.2604 12.1387ZM18.4268 22.4706C20.2521 22.4706 21.9827 23.1096 23.3608 24.2775L20.9879 26.6505L16.808 22.4706H18.4268ZM20.1868 27.4515L15.5476 32.0907L10.9089 27.4513L15.5477 22.8123L20.1868 27.4515ZM12.6506 22.4706H14.2876L10.1081 26.6505L7.72678 24.2689C9.10428 23.1065 10.831 22.4706 12.6506 22.4706ZM5.00067 30.1193C5.00067 28.2326 5.67821 26.4576 6.91626 25.0604L9.30717 27.4517L5.00056 31.7587L5.00067 30.1193ZM5.00067 34.0271L9.30593 38.3324L5.00056 42.6378L5.00067 34.0271ZM5.00067 46.4998V44.9085L9.30536 49.2132L6.93653 51.582C5.68546 50.181 5.00067 48.3974 5.00067 46.4998ZM12.6506 54.1486C10.8419 54.1486 9.12354 53.5198 7.75001 52.3706L10.1064 50.0143L14.2406 54.1486H12.6506ZM10.9073 49.2134L15.5472 44.5735L20.1872 49.2137L15.5481 53.8541L10.9073 49.2134ZM18.4268 54.1486H16.8553L20.9881 50.0146L23.3357 52.3623C21.9609 53.517 20.2395 54.1486 18.4268 54.1486ZM24.148 51.5725L21.7891 49.2134L23.5862 47.4158L22.7853 46.6149L20.9881 48.4125L16.3482 43.7727L20.9874 39.1334L23.9701 42.1166C23.908 42.6324 23.8947 43.1578 23.9328 43.6846C24.0309 45.0409 24.5163 47.4478 25.3604 49.728C25.0465 50.4011 24.6402 51.0189 24.148 51.5725ZM40.914 49.8352C40.0978 51.8028 38.754 54.1482 36.9877 54.1482C36.2725 54.1482 35.5606 53.6535 34.7708 53.0556C34.4787 52.8346 34.1342 52.7237 33.79 52.7237C33.4585 52.7237 33.1268 52.8265 32.8424 53.0328C32.0981 53.5725 31.2397 54.1482 30.4718 54.1482C28.704 54.1482 27.3962 51.7967 26.6103 49.824C25.6888 47.511 25.1621 44.9777 25.0628 43.6028C24.9319 41.7927 25.503 40.0058 26.6295 38.6999C27.763 37.386 29.3031 36.71 30.9122 36.8318C31.6587 36.8888 32.3742 37.114 33.039 37.5014C33.1014 37.5379 33.1662 37.5685 33.2326 37.5951V39.1153H34.3654V37.595C34.4316 37.5683 34.4964 37.5377 34.559 37.5014C35.2237 37.114 35.9393 36.8888 36.6857 36.8318C38.2986 36.7098 39.8348 37.3862 40.9683 38.6999C42.0948 40.0059 42.6659 41.7931 42.5352 43.6028C42.4154 45.2598 41.7489 47.8228 40.914 49.8352ZM42.3664 49.2115C42.6025 48.5514 42.8181 47.863 43.0038 47.1819C48.4585 44.6429 51.9695 39.1567 51.9695 33.1247C51.9695 24.7669 45.3206 17.934 37.0345 17.6347V16.0036C46.2195 16.3036 53.5996 23.8687 53.5996 33.1247C53.5996 40.3094 49.0356 46.7629 42.3664 49.2115Z" fill="#081A70"/>
<path d="M39.325 39.877C40.1423 40.8244 40.5558 42.1353 40.4592 43.4729C40.4153 44.0784 40.2797 44.8625 40.0671 45.7407L41.1681 46.0074C41.3953 45.0695 41.5409 44.2214 41.5892 43.5547C41.7073 41.9201 41.1947 40.3099 40.1829 39.137L39.325 39.877Z" fill="#081A70"/>
<path d="M38.9708 49.1448L40.017 49.5787C40.2564 49.0014 40.4852 48.3678 40.6972 47.6949L39.6168 47.3546C39.4148 47.9958 39.1973 48.5981 38.9708 49.1448Z" fill="#081A70"/>
<path d="M49.106 14.7841H50.2388V13.3807H51.6422V12.2479H50.2388V10.8445H49.106V12.2479H47.7025V13.3807H49.106V14.7841Z" fill="#081A70"/>
<path d="M29.3762 23.874H30.509V22.4706H31.9125V21.3378H30.509V19.9344H29.3762V21.3378H27.9728V22.4706H29.3762V23.874Z" fill="#081A70"/>
<path d="M34.0404 10.5751H35.1732V9.17163H36.5765V8.03882H35.1732V6.63538H34.0404V8.03882H32.637V9.17163H34.0404V10.5751Z" fill="#081A70"/>
</svg>
