<svg width="59" height="58" viewBox="0 0 59 58" fill="none" xmlns="http://www.w3.org/2000/svg">
<path d="M43.9262 33.3807H42.7073V34.5995H43.9262V33.3807Z" fill="#081A70"/>
<path d="M48.9117 29.5973H47.6927V30.8161H48.9117V29.5973Z" fill="#081A70"/>
<path d="M40.2035 20.6208H38.9846V21.8396H40.2035V20.6208Z" fill="#081A70"/>
<path d="M42.9938 25.3359H41.7749V26.5547H42.9938V25.3359Z" fill="#081A70"/>
<path d="M48.3023 38.0511H47.0834V39.2699H48.3023V38.0511Z" fill="#081A70"/>
<path d="M17.0686 38.3354L16.2067 37.4736L15.3449 38.3356L16.2068 39.1974L17.0686 38.3354Z" fill="#081A70"/>
<path d="M16.2069 48.3954L15.3451 49.2572L16.2069 50.119L17.0687 49.2572L16.2069 48.3954Z" fill="#081A70"/>
<path d="M16.2073 28.368L17.0692 27.5061L16.2073 26.6442L15.3454 27.5061L16.2073 28.368Z" fill="#081A70"/>
<path d="M10.7953 32.0579L9.93347 32.9198L10.7954 33.7816L11.6572 32.9197L10.7953 32.0579Z" fill="#081A70"/>
<path d="M21.6648 33.7809L22.5266 32.9191L21.6648 32.0573L20.803 32.9191L21.6648 33.7809Z" fill="#081A70"/>
<path d="M10.7937 44.8669L11.6555 44.0051L10.7937 43.1433L9.9319 44.0051L10.7937 44.8669Z" fill="#081A70"/>
<path d="M20.8025 44.0054L21.6643 44.8672L22.5261 44.0054L21.6643 43.1436L20.8025 44.0054Z" fill="#081A70"/>
<path d="M37.0677 14.8615H36.5013V17.6233V30.6646H37.6341V18.7671C45.2957 19.0653 51.4363 25.3913 51.4363 33.1247C51.4363 38.4047 48.5344 43.234 43.9535 45.7374C44.1119 44.9854 44.2219 44.2806 44.2648 43.6845C44.4171 41.5778 43.7467 39.4913 42.4258 37.9601C41.6054 37.0091 40.6043 36.3372 39.5084 35.9805C40.4367 34.4584 40.2909 32.533 40.283 32.4386L40.2431 31.9614L39.7659 31.9213C39.6556 31.912 37.0471 31.7118 35.5004 33.2588C35.2541 33.5051 35.0333 33.7609 34.8379 34.0206C34.5387 32.3139 33.7146 30.713 32.4727 29.4873L31.6771 30.2935C33.0467 31.6452 33.8323 33.5241 33.8323 35.4483V36.3212C33.1263 35.9704 32.3766 35.7615 31.5978 35.7022C31.4465 35.6905 31.2936 35.6848 31.1431 35.6848C29.3315 35.6848 27.6368 36.4929 26.3712 37.9598C25.6697 38.7731 25.1539 39.7436 24.8451 40.7897L22.388 38.3322L26.6751 34.0451V35.5544H27.8079V30.1192C27.8079 27.7439 26.8739 25.5184 25.178 23.8529C24.0208 22.716 22.6009 21.9389 21.0579 21.5747C21.1545 14.847 24.3322 12.2632 24.3629 12.2391L25.6774 11.2243H24.0168C22.9004 11.2243 21.8786 11.3632 20.9552 11.6358C21.5314 5.97874 24.2747 3.75458 24.3017 3.73328L25.6164 2.71851H23.9557C19.4174 2.71851 17.1408 4.90008 15.9996 7.04596C14.6839 5.4615 12.7457 4.65754 10.2196 4.65754H8.55948L9.87355 5.67231C9.88941 5.68455 11.3018 6.80535 12.1069 9.61813C10.8498 9.17021 9.4279 8.94195 7.844 8.94195H6.18341L7.49781 9.95672C7.53214 9.98312 10.9311 12.6837 11.5191 19.7526L12.6479 19.6587C12.225 14.5734 10.4253 11.5889 9.24438 10.143C11.6586 10.3867 13.5734 11.2837 14.9498 12.8184C17.4855 15.6459 17.5418 19.9094 17.4814 21.338H13.2503C10.9408 21.338 8.75954 22.2277 7.1088 23.8432C5.40562 25.5084 4.46765 27.7375 4.46765 30.1195V46.5001C4.46765 48.8936 5.41378 51.1307 7.13157 52.7992C8.77914 54.4 10.9522 55.2817 13.2505 55.2817H19.0267C21.3292 55.2817 23.5054 54.3966 25.1537 52.7897C25.6812 52.2764 26.1364 51.7058 26.5164 51.0857C27.7823 53.8703 29.3123 55.2812 31.0716 55.2812C32.1785 55.2812 33.2189 54.5943 34.107 53.9502C34.2834 53.8224 34.511 53.8259 34.6869 53.9591C35.4241 54.517 36.4339 55.2812 37.5875 55.2812C39.4451 55.2812 41.0713 53.7028 42.4245 50.5889C46.0426 49.4792 49.2935 47.2142 51.6009 44.1876C54.0418 40.9863 55.3322 37.1609 55.3322 33.1249C55.3322 23.0543 47.1388 14.8615 37.0677 14.8615ZM14.8055 11.1234C14.3755 10.7726 13.9136 10.4624 13.4182 10.1959C12.9738 8.14298 12.207 6.74758 11.5793 5.888C13.2959 6.14923 14.6009 6.9337 15.4726 8.22896C15.0999 9.24113 14.9043 10.2532 14.8055 11.1234ZM36.3014 34.0599C37.1231 33.2383 38.4393 33.0717 39.1595 33.046C39.1365 33.714 38.9907 34.8931 38.307 35.7207C38.0916 35.6973 37.8738 35.6849 37.6541 35.6849C37.5039 35.6849 37.3507 35.6907 37.1994 35.7023C36.4285 35.7611 35.6866 35.9665 34.9871 36.3108C35.0853 35.6908 35.5184 34.843 36.3014 34.0599ZM21.5873 37.5313L16.9484 32.8919L21.5876 28.2526L26.2268 32.8916L21.5873 37.5313ZM15.3459 43.7725L10.7062 48.4123L6.06696 43.7732L10.7067 39.1333L15.3459 43.7725ZM6.06764 32.8922L10.7076 28.2523L15.3465 32.8919L10.7067 37.5315L6.06764 32.8922ZM11.5077 38.3324L16.1474 33.6928L20.7862 38.3322L16.1468 42.9716L11.5077 38.3324ZM26.6753 30.1193V31.7381L22.3886 27.4515L24.7695 25.0707C26.0012 26.4676 26.6753 28.2388 26.6753 30.1193ZM15.8602 12.1387C15.907 11.1365 16.0834 9.73605 16.6295 8.3752C17.6778 5.7694 19.6738 4.2785 22.5724 3.93062C21.5483 5.24287 20.0946 7.8148 19.7774 12.0803C19.2364 12.3354 18.7378 12.6469 18.2842 13.015L18.998 13.8947C19.9635 13.1113 21.1835 12.6244 22.6363 12.4406C21.5624 13.8331 20.0284 16.6394 19.9264 21.384C19.6292 21.3538 19.3291 21.3377 19.0266 21.3377H18.6185C18.69 19.7202 18.6047 15.2695 15.8602 12.1387ZM19.0266 22.4706C20.8519 22.4706 22.5825 23.1096 23.9606 24.2775L21.5877 26.6505L17.4078 22.4706H19.0266ZM20.7866 27.4515L16.1474 32.0907L11.5086 27.4513L16.1475 22.8123L20.7866 27.4515ZM13.2503 22.4706H14.8874L10.7079 26.6505L8.32658 24.2689C9.70408 23.1065 11.4308 22.4706 13.2503 22.4706ZM5.60046 30.1193C5.60046 28.2326 6.278 26.4576 7.51605 25.0604L9.90696 27.4517L5.60035 31.7587L5.60046 30.1193ZM5.60046 34.0271L9.90572 38.3324L5.60035 42.6378L5.60046 34.0271ZM5.60046 46.4998V44.9085L9.90515 49.2132L7.53633 51.582C6.28525 50.181 5.60046 48.3974 5.60046 46.4998ZM13.2503 54.1486C11.4417 54.1486 9.72333 53.5198 8.3498 52.3706L10.7062 50.0143L14.8404 54.1486H13.2503ZM11.5071 49.2134L16.1469 44.5735L20.7869 49.2137L16.1479 53.8541L11.5071 49.2134ZM19.0266 54.1486H17.4551L21.5878 50.0146L23.9355 52.3623C22.5607 53.517 20.8393 54.1486 19.0266 54.1486ZM24.7478 51.5725L22.3889 49.2134L24.186 47.4158L23.3851 46.6149L21.5878 48.4125L16.948 43.7727L21.5872 39.1334L24.5699 42.1166C24.5078 42.6324 24.4945 43.1578 24.5326 43.6846C24.6307 45.0409 25.1161 47.4478 25.9602 49.728C25.6463 50.4011 25.24 51.0189 24.7478 51.5725ZM41.5138 49.8352C40.6976 51.8028 39.3537 54.1482 37.5875 54.1482C36.8723 54.1482 36.1603 53.6535 35.3706 53.0556C35.0785 52.8346 34.734 52.7237 34.3898 52.7237C34.0583 52.7237 33.7266 52.8265 33.4422 53.0328C32.6979 53.5725 31.8395 54.1482 31.0716 54.1482C29.3038 54.1482 27.9959 51.7967 27.2101 49.824C26.2886 47.511 25.7619 44.9777 25.6626 43.6028C25.5317 41.7927 26.1028 40.0058 27.2293 38.6999C28.3627 37.386 29.9029 36.71 31.512 36.8318C32.2585 36.8888 32.974 37.114 33.6388 37.5014C33.7012 37.5379 33.766 37.5685 33.8324 37.5951V39.1153H34.9652V37.595C35.0314 37.5683 35.0962 37.5377 35.1588 37.5014C35.8235 37.114 36.539 36.8888 37.2855 36.8318C38.8984 36.7098 40.4346 37.3862 41.5681 38.6999C42.6946 40.0059 43.2657 41.7931 43.135 43.6028C43.0152 45.2598 42.3487 47.8228 41.5138 49.8352ZM42.9662 49.2115C43.2023 48.5514 43.4179 47.863 43.6036 47.1819C49.0583 44.6429 52.5693 39.1567 52.5693 33.1247C52.5693 24.7669 45.9204 17.934 37.6343 17.6347V16.0036C46.8193 16.3036 54.1994 23.8687 54.1994 33.1247C54.1994 40.3094 49.6354 46.7629 42.9662 49.2115Z" fill="#081A70"/>
<path d="M39.9248 39.877C40.7421 40.8244 41.1556 42.1353 41.059 43.4729C41.0151 44.0784 40.8795 44.8625 40.6669 45.7407L41.7679 46.0074C41.9951 45.0695 42.1407 44.2214 42.189 43.5547C42.3071 41.9201 41.7945 40.3099 40.7827 39.137L39.9248 39.877Z" fill="#081A70"/>
<path d="M39.5706 49.1448L40.6168 49.5787C40.8562 49.0014 41.085 48.3678 41.297 47.6949L40.2166 47.3546C40.0146 47.9958 39.7971 48.5981 39.5706 49.1448Z" fill="#081A70"/>
<path d="M49.7057 14.7841H50.8385V13.3807H52.2419V12.2479H50.8385V10.8445H49.7057V12.2479H48.3022V13.3807H49.7057V14.7841Z" fill="#081A70"/>
<path d="M29.976 23.874H31.1088V22.4706H32.5122V21.3378H31.1088V19.9344H29.976V21.3378H28.5725V22.4706H29.976V23.874Z" fill="#081A70"/>
<path d="M34.6403 10.5751H35.7731V9.17163H37.1764V8.03882H35.7731V6.63538H34.6403V8.03882H33.2368V9.17163H34.6403V10.5751Z" fill="#081A70"/>
</svg>
