<svg width="49" height="48" viewBox="0 0 49 48" fill="none" xmlns="http://www.w3.org/2000/svg">
<g clip-path="url(#clip0_869_2012)">
<path d="M41.3429 18.4715C41.3429 8.95719 33.6714 1.28577 24.2 1.28577C14.7286 1.28577 7.05716 8.95719 7.05716 18.4286C7.05716 18.4286 7.05716 18.4286 7.05716 18.4715C3.24287 18.6858 0.200012 21.8572 0.200012 25.7143V26.5715C0.200012 30.6 3.45716 33.8572 7.48573 33.8572H7.87144L10.9143 38.7001C13.0572 42.1286 16.7 44.1429 20.7286 44.1429H21.3286C21.7143 45.6 23.0429 46.7143 24.6286 46.7143C26.5143 46.7143 28.0572 45.1715 28.0572 43.2858C28.0572 41.4001 26.5143 39.8572 24.6286 39.8572C23.0429 39.8572 21.7143 40.9715 21.3286 42.4286H20.7286C17.3 42.4286 14.1714 40.6715 12.3714 37.7572L9.88573 33.8572H10.4857C11.4286 33.8572 12.2 33.0858 12.2 32.1429V20.1429C12.2 19.2001 11.4286 18.4286 10.4857 18.4286H8.77144C8.77144 9.90005 15.6714 3.00005 24.2 3.00005C32.7286 3.00005 39.6286 9.90005 39.6286 18.4286H37.9143C36.9714 18.4286 36.2 19.2001 36.2 20.1429V32.1429C36.2 33.0858 36.9714 33.8572 37.9143 33.8572H40.9143C44.9429 33.8572 48.2 30.6 48.2 26.5715V25.7143C48.2 21.8572 45.1572 18.6858 41.3429 18.4715ZM24.6286 41.5715C25.5714 41.5715 26.3429 42.3429 26.3429 43.2858C26.3429 44.2286 25.5714 45 24.6286 45C23.6857 45 22.9143 44.2286 22.9143 43.2858C22.9143 42.3429 23.6857 41.5715 24.6286 41.5715ZM10.4857 20.1429V32.1429H7.48573C4.40001 32.1429 1.9143 29.6572 1.9143 26.5715V25.7143C1.9143 22.6286 4.40001 20.1429 7.48573 20.1429H10.4857ZM46.4857 26.5715C46.4857 29.6572 44 32.1429 40.9143 32.1429H37.9143V20.1429H40.9143C44 20.1429 46.4857 22.6286 46.4857 25.7143V26.5715Z" fill="#081A70"/>
<path d="M31.3143 7.75716C31.2286 7.71431 31.1 7.62859 30.9714 7.54288C30.8429 7.45716 30.7143 7.37145 30.6286 7.32859C30.2429 7.07145 29.6857 7.20002 29.4714 7.62859C29.2571 8.05716 29.3429 8.52859 29.7714 8.78573C29.8571 8.82859 29.9857 8.91431 30.1143 9.00002C30.2429 9.08573 30.3714 9.17145 30.5 9.21431C30.6286 9.30002 30.8 9.34288 30.9286 9.34288C31.2286 9.34288 31.4857 9.21431 31.6571 8.91431C31.8714 8.52859 31.7429 8.01431 31.3143 7.75716Z" fill="#081A70"/>
<path d="M24.2 5.57153C20.5571 5.57153 17.1286 7.15725 14.7714 9.9001C14.4714 10.243 14.5143 10.8001 14.8571 11.1001C15.0286 11.2287 15.2 11.3144 15.4143 11.3144C15.6714 11.3144 15.8857 11.2287 16.0571 11.0144C18.1143 8.65725 21.0714 7.28582 24.2 7.28582C24.9714 7.28582 25.7428 7.37153 26.5143 7.54296C26.9857 7.62868 27.4143 7.32868 27.5428 6.9001C27.6714 6.47153 27.3286 6.0001 26.9 5.87153C26 5.65725 25.1 5.57153 24.2 5.57153Z" fill="#081A70"/>
</g>
<defs>
<clipPath id="clip0_869_2012">
<rect width="48" height="48" fill="white" transform="translate(0.200012)"/>
</clipPath>
</defs>
</svg>
