<svg width="65" height="33" viewBox="0 0 65 33" fill="none" xmlns="http://www.w3.org/2000/svg">
<path d="M32.7185 32.1075C32.3859 32.1075 32.1165 31.8381 32.1165 31.5056C32.1165 31.173 32.3859 30.9036 32.7185 30.9036C33.051 30.9036 33.3204 31.173 33.3204 31.5056C33.3204 31.8381 33.051 32.1075 32.7185 32.1075Z" fill="#282828"/>
<path d="M31.1851 8.80281H34.252C33.7448 8.76897 33.2345 8.74551 32.7183 8.74551C32.2026 8.74551 31.6922 8.76897 31.1851 8.80281Z" fill="#D1D3D4"/>
<path d="M35.4194 0.307472C35.4194 0.477131 34.2102 0.614753 32.7184 0.614753C31.2267 0.614753 30.0174 0.477131 30.0174 0.307472C30.0174 0.137813 31.2267 0.000190735 32.7184 0.000190735C34.2102 0.000190735 35.4194 0.137813 35.4194 0.307472Z" fill="#282828"/>
<path d="M46.9827 20.9319L31.9069 30.6399C31.43 31.0352 31.3452 31.7341 31.7134 32.2318C32.0816 32.7295 32.7751 32.8527 33.2926 32.512L46.9827 20.9319Z" fill="#282828"/>
<path d="M32.7017 33.0001C32.9481 33.0001 33.1489 32.8025 33.1529 32.5561C33.1529 32.5561 32.7125 9.32865 32.7022 9.27045C32.6904 9.32865 32.25 32.5561 32.25 32.5561C32.2546 32.8025 32.4553 33.0001 32.7017 33.0001Z" fill="#282828"/>
<path d="M34.3624 31.8265C34.4111 31.6316 34.2942 31.4335 34.0998 31.3821C34.0998 31.3821 9.99422 25.5911 9.95902 25.6904C9.91751 25.8077 33.9215 32.095 33.9215 32.095C34.1169 32.141 34.3136 32.0214 34.3624 31.8265Z" fill="#282828"/>
<path d="M32.7184 32.3364C32.2599 32.3364 31.8881 31.9646 31.8881 31.5061C31.8881 31.0477 32.2599 30.6759 32.7184 30.6759C33.1768 30.6759 33.5486 31.0477 33.5486 31.5061C33.5486 31.9646 33.1768 32.3364 32.7184 32.3364Z" fill="#282828"/>
<path d="M36.6567 6.64109C36.3224 6.5883 36.0088 6.81617 35.956 7.15052C35.9032 7.48487 36.131 7.79847 36.4654 7.85171C36.7997 7.90451 37.1133 7.67664 37.1666 7.34229C37.2189 7.00748 36.9911 6.69388 36.6567 6.64109Z" fill="#282828"/>
<path d="M40.4979 7.56303C40.1762 7.45835 39.8306 7.63478 39.7259 7.9565C39.6212 8.27822 39.7976 8.62385 40.1194 8.72853C40.4411 8.83322 40.7867 8.65679 40.8914 8.33507C40.9961 8.01335 40.8197 7.66771 40.4979 7.56303Z" fill="#282828"/>
<path d="M44.1479 9.07519C43.8465 8.92177 43.4774 9.04135 43.324 9.34276C43.1706 9.64418 43.2902 10.0133 43.5916 10.1667C43.893 10.3201 44.2621 10.2005 44.4155 9.89912C44.5694 9.5977 44.4494 9.2286 44.1479 9.07519Z" fill="#282828"/>
<path d="M46.6603 11.2743C46.4613 11.5482 46.5223 11.9313 46.7957 12.1303C47.0696 12.3293 47.4527 12.2684 47.6517 11.9949C47.8507 11.721 47.7897 11.3379 47.5163 11.139C47.2424 10.94 46.8593 11.0009 46.6603 11.2743Z" fill="#282828"/>
<path d="M49.6538 13.7046C49.4146 13.9437 49.4146 14.3318 49.6538 14.5709C49.8929 14.81 50.281 14.81 50.5201 14.5709C50.7593 14.3318 50.7593 13.9437 50.5201 13.7046C50.281 13.4654 49.8929 13.4654 49.6538 13.7046Z" fill="#282828"/>
<path d="M52.2297 16.573C51.9558 16.772 51.8954 17.1551 52.0943 17.4289C52.2933 17.7028 52.6764 17.7633 52.9503 17.5643C53.2242 17.3653 53.2847 16.9822 53.0857 16.7083C52.8867 16.4349 52.5036 16.374 52.2297 16.573Z" fill="#282828"/>
<path d="M54.3257 19.8091C54.0243 19.9625 53.9043 20.3316 54.0581 20.633C54.2116 20.9344 54.5807 21.0544 54.8821 20.9006C55.1835 20.7472 55.3035 20.378 55.1496 20.0766C54.9962 19.7752 54.6271 19.6552 54.3257 19.8091Z" fill="#282828"/>
<path d="M56.2681 24.4988C56.5898 24.3941 56.7662 24.0484 56.6616 23.7267C56.5569 23.405 56.2112 23.2286 55.8895 23.3333C55.5678 23.4379 55.3914 23.7836 55.4961 24.1053C55.6007 24.427 55.9464 24.6034 56.2681 24.4988Z" fill="#282828"/>
<path d="M56.3734 27.7596C56.4261 28.0939 56.7402 28.3218 57.0741 28.269C57.4085 28.2162 57.6363 27.9022 57.5835 27.5678C57.5307 27.2335 57.2167 27.0056 56.8828 27.0584C56.5484 27.1112 56.3206 27.4252 56.3734 27.7596Z" fill="#282828"/>
<path d="M8.36309 28.2686C8.69744 28.3214 9.01104 28.0935 9.06428 27.7591C9.11707 27.4248 8.88921 27.1112 8.55485 27.0579C8.2205 27.0051 7.9069 27.233 7.85411 27.5674C7.80086 27.9017 8.02873 28.2158 8.36309 28.2686Z" fill="#282828"/>
<path d="M9.54784 23.3333C9.22612 23.2286 8.88048 23.405 8.7758 23.7267C8.67112 24.0484 8.84754 24.3941 9.16926 24.4988C9.49098 24.6034 9.83662 24.4275 9.9413 24.1053C10.0455 23.7836 9.86956 23.4379 9.54784 23.3333Z" fill="#282828"/>
<path d="M11.1114 19.8091C10.81 19.6557 10.4409 19.7752 10.2875 20.0767C10.134 20.3781 10.2536 20.7472 10.555 20.9006C10.8564 21.054 11.2255 20.9344 11.379 20.633C11.5324 20.3316 11.4132 19.9625 11.1114 19.8091Z" fill="#282828"/>
<path d="M12.3518 16.7083C12.1529 16.9822 12.2138 17.3653 12.4872 17.5643C12.7611 17.7633 13.1442 17.7024 13.3432 17.4289C13.5422 17.1551 13.4812 16.772 13.2078 16.573C12.9335 16.374 12.5504 16.4349 12.3518 16.7083Z" fill="#282828"/>
<path d="M14.9169 13.7046C14.6777 13.9437 14.6777 14.3318 14.9169 14.5709C15.156 14.81 15.5441 14.81 15.7832 14.5709C16.0224 14.3318 16.0224 13.9437 15.7832 13.7046C15.5445 13.4654 15.1565 13.4654 14.9169 13.7046Z" fill="#282828"/>
<path d="M17.9212 11.139C17.6473 11.3379 17.5869 11.721 17.7859 11.9949C17.9849 12.2688 18.3679 12.3293 18.6418 12.1303C18.9157 11.9313 18.9762 11.5482 18.7772 11.2743C18.5782 11.0009 18.1947 10.94 17.9212 11.139Z" fill="#282828"/>
<path d="M21.2896 9.07517C20.9882 9.22858 20.8681 9.59768 21.022 9.89909C21.1754 10.2005 21.5445 10.3205 21.8459 10.1667C22.1473 10.0133 22.2674 9.64415 22.1135 9.34274C21.9596 9.04132 21.591 8.9213 21.2896 9.07517Z" fill="#282828"/>
<path d="M24.939 7.56303C24.6173 7.66771 24.4409 8.01335 24.5455 8.33507C24.6502 8.65679 24.9959 8.83322 25.3176 8.72853C25.6393 8.62385 25.8157 8.27822 25.711 7.9565C25.6064 7.63478 25.2607 7.45835 24.939 7.56303Z" fill="#282828"/>
<path d="M28.78 6.64121C28.4456 6.694 28.2177 7.00805 28.2705 7.34195C28.3233 7.67631 28.6374 7.90417 28.9717 7.85138C29.3061 7.79859 29.534 7.48454 29.4812 7.15019C29.4279 6.81583 29.1143 6.58797 28.78 6.64121Z" fill="#282828"/>
<path d="M32.7185 6.33121C32.3801 6.33121 32.1058 6.60556 32.1058 6.94397C32.1058 7.28239 32.3801 7.55673 32.7185 7.55673C33.0569 7.55673 33.3313 7.28239 33.3313 6.94397C33.3313 6.60556 33.0569 6.33121 32.7185 6.33121Z" fill="#282828"/>
<path d="M32.7185 6.33128C32.1838 6.33128 31.7502 6.7649 31.7502 7.29959C31.7502 7.83429 32.1838 8.26791 32.7185 8.26791C33.2532 8.26791 33.6868 7.83429 33.6868 7.29959C33.6868 6.76445 33.2532 6.33128 32.7185 6.33128Z" fill="#282828"/>
<path d="M49.1506 13.7046C48.7725 14.0827 48.7725 14.696 49.1506 15.0741C49.5287 15.4522 50.1419 15.4522 50.5201 15.0741C50.8982 14.696 50.8982 14.0827 50.5201 13.7046C50.1419 13.3265 49.5287 13.3265 49.1506 13.7046Z" fill="#282828"/>
<path d="M14.9167 13.7046C14.5386 14.0827 14.5386 14.696 14.9167 15.0741C15.2948 15.4522 15.908 15.4522 16.2861 15.0741C16.6643 14.696 16.6643 14.0827 16.2861 13.7046C15.908 13.3265 15.2948 13.3265 14.9167 13.7046Z" fill="#282828"/>
<path d="M32.7184 2.44168C33.6299 2.44168 34.5301 2.48905 35.4194 2.57253V0.567307C35.0106 0.704929 33.9575 0.803296 32.7184 0.803296C31.4798 0.803296 30.4262 0.704929 30.0174 0.567307V2.57253C30.9072 2.4886 31.8074 2.44168 32.7184 2.44168Z" fill="#282828"/>
<path d="M32.7184 5.05335C47.3281 5.05335 59.1712 16.8965 59.1712 31.5061H61.2802C61.2802 15.7319 48.4927 2.94435 32.7184 2.94435C16.9442 2.94435 4.15665 15.7319 4.15665 31.5061H6.26565C6.26565 16.8965 18.1093 5.05335 32.7184 5.05335Z" fill="#282828"/>
<path d="M59.2308 21.0513C60.214 22.2191 61.6633 22.8932 63.1898 22.8932H63.5688C64.1175 22.8932 64.5624 23.3381 64.5624 23.8868C64.5624 24.4355 64.1175 24.8804 63.5688 24.8804H59.2308V21.0513Z" fill="#282828"/>
<path d="M6.20653 21.0513C5.22332 22.2191 3.774 22.8932 2.24752 22.8932H1.8685C1.31981 22.8932 0.874908 23.3381 0.874908 23.8868C0.874908 24.4355 1.31981 24.8804 1.8685 24.8804H6.20653V21.0513Z" fill="#282828"/>
<path d="M32.7184 8.63154C20.1055 8.63154 9.84381 18.8927 9.84381 31.5062H10.0721C10.0721 19.0191 20.2309 8.86031 32.718 8.86031C45.205 8.86031 55.3643 19.0191 55.3643 31.5062H55.5926C55.5935 18.8927 45.3318 8.63154 32.7184 8.63154Z" fill="#282828"/>
<path d="M56.9257 30.5379C56.391 30.5379 55.9574 30.9715 55.9574 31.5062H57.894C57.8936 30.9715 57.4604 30.5379 56.9257 30.5379Z" fill="#282828"/>
<path d="M8.5117 30.5379C7.977 30.5379 7.54338 30.9715 7.54338 31.5062H9.48002C9.48002 30.9715 9.04639 30.5379 8.5117 30.5379Z" fill="#282828"/>
</svg>
