<svg width="24" height="24" viewBox="0 0 24 24" fill="none" xmlns="http://www.w3.org/2000/svg">
<path d="M8.39001 18.4905V8.33046C8.39001 7.93046 8.51001 7.54046 8.73001 7.21046L11.46 3.15046C11.89 2.50046 12.96 2.04046 13.87 2.38046C14.85 2.71046 15.5 3.81046 15.29 4.79046L14.77 8.06046C14.73 8.36046 14.81 8.63046 14.98 8.84046C15.15 9.03046 15.4 9.15046 15.67 9.15046H19.78C20.57 9.15046 21.25 9.47046 21.65 10.0305C22.03 10.5705 22.1 11.2705 21.85 11.9805L19.39 19.4705C19.08 20.7105 17.73 21.7205 16.39 21.7205H12.49C11.82 21.7205 10.88 21.4905 10.45 21.0605L9.17001 20.0705C8.68001 19.7005 8.39001 19.1105 8.39001 18.4905Z" fill="#141414"/>
<path d="M5.21 6.38037H4.18C2.63 6.38037 2 6.98037 2 8.46037V18.5204C2 20.0004 2.63 20.6004 4.18 20.6004H5.21C6.76 20.6004 7.39 20.0004 7.39 18.5204V8.46037C7.39 6.98037 6.76 6.38037 5.21 6.38037Z" fill="#141414"/>
</svg>
