<svg width="24" height="24" viewBox="0 0 24 24" fill="none" xmlns="http://www.w3.org/2000/svg">
<path d="M7.47998 5.65052L10.58 3.25052C10.98 2.85052 11.88 2.65052 12.48 2.65052H16.28C17.48 2.65052 18.78 3.55052 19.08 4.75052L21.48 12.0505C21.98 13.4505 21.08 14.6505 19.58 14.6505H15.58C14.98 14.6505 14.48 15.1505 14.58 15.8505L15.08 19.0505C15.28 19.9505 14.68 20.9505 13.78 21.2505C12.98 21.5505 11.98 21.1505 11.58 20.5505L7.47998 14.4505" stroke="#0B0F0E" stroke-width="1.5" stroke-miterlimit="10"/>
<path d="M2.38 5.65059V15.4506C2.38 16.8506 2.98 17.3506 4.38 17.3506H5.38C6.78 17.3506 7.38 16.8506 7.38 15.4506V5.65059C7.38 4.25059 6.78 3.75059 5.38 3.75059H4.38C2.98 3.75059 2.38 4.25059 2.38 5.65059Z" stroke="#0B0F0E" stroke-width="1.5" stroke-linecap="round" stroke-linejoin="round"/>
</svg>
