<svg width="35" height="34" viewBox="0 0 35 34" fill="none" xmlns="http://www.w3.org/2000/svg">
<path d="M20.8125 10.625L16.5625 6.375L20.8125 2.125M14.3711 23.375L18.6211 27.625L14.3711 31.875" stroke="#141414" stroke-linecap="round" stroke-linejoin="round"/>
<path d="M8.0625 9.5625C9.82291 9.5625 11.25 8.13541 11.25 6.375C11.25 4.61459 9.82291 3.1875 8.0625 3.1875C6.30209 3.1875 4.875 4.61459 4.875 6.375C4.875 8.13541 6.30209 9.5625 8.0625 9.5625Z" stroke="#141414" stroke-linecap="round" stroke-linejoin="round"/>
<path d="M27.1875 30.8125C28.9479 30.8125 30.375 29.3854 30.375 27.625C30.375 25.8646 28.9479 24.4375 27.1875 24.4375C25.4271 24.4375 24 25.8646 24 27.625C24 29.3854 25.4271 30.8125 27.1875 30.8125Z" stroke="#141414" stroke-linecap="round" stroke-linejoin="round"/>
<path d="M17.625 6.375H23.2031C24.2598 6.375 25.2733 6.79478 26.0205 7.542C26.7677 8.28921 27.1875 9.30265 27.1875 10.3594V24.4375M17.5586 27.625H11.9805C10.9237 27.625 9.91031 27.2052 9.16309 26.458C8.41587 25.7108 7.99609 24.6973 7.99609 23.6406V9.5625" stroke="#141414" stroke-linecap="round" stroke-linejoin="round"/>
</svg>
