<svg width="35" height="34" viewBox="0 0 35 34" fill="none" xmlns="http://www.w3.org/2000/svg">
<path d="M17.625 27.8432L16.5512 26.8728C14.2392 24.761 12.3267 22.9533 10.8137 21.4498C9.30161 19.9453 8.10784 18.6183 7.23234 17.4689C6.35684 16.3195 5.74484 15.2806 5.39634 14.3523C5.04784 13.4239 4.87406 12.4884 4.875 11.5458C4.875 9.74384 5.487 8.23084 6.711 7.00684C7.935 5.78284 9.448 5.17084 11.25 5.17084C12.4967 5.17084 13.6654 5.48959 14.7563 6.12709C15.8471 6.76459 16.8033 7.69203 17.625 8.90942C18.4467 7.69203 19.4029 6.76459 20.4938 6.12709C21.5846 5.48959 22.7533 5.17084 24 5.17084C25.802 5.17084 27.315 5.78284 28.539 7.00684C29.763 8.23084 30.375 9.74384 30.375 11.5458C30.375 12.4865 30.2012 13.4215 29.8537 14.3508C29.5052 15.2821 28.8932 16.3219 28.0177 17.4703C27.1422 18.6188 25.9526 19.9453 24.4491 21.4498C22.9455 22.9533 21.0283 24.761 18.6974 26.8728L17.625 27.8432ZM17.625 25.925C19.8917 23.8756 21.7569 22.1208 23.2208 20.6607C24.6847 19.2006 25.8417 17.9326 26.6917 16.8569C27.5417 15.7812 28.1319 14.8297 28.4625 14.0023C28.7931 13.1731 28.9583 12.3543 28.9583 11.5458C28.9583 10.1292 28.4861 8.94862 27.5417 8.00417C26.5972 7.05973 25.4167 6.5875 24 6.5875C22.8723 6.5875 21.8316 6.90956 20.8777 7.55367C19.9238 8.19778 19.0709 9.16725 18.3192 10.4621H16.9337C16.1621 9.14931 15.304 8.17512 14.3596 7.5395C13.4151 6.90484 12.3791 6.5875 11.2514 6.5875C9.85364 6.5875 8.67781 7.05973 7.72392 8.00417C6.77003 8.94862 6.29261 10.1292 6.29167 11.5458C6.29167 12.3543 6.45695 13.1731 6.7875 14.0023C7.11806 14.8316 7.70834 15.7831 8.55834 16.8569C9.40834 17.9308 10.5653 19.1939 12.0292 20.6465C13.4931 22.0991 15.3583 23.8586 17.625 25.925Z" fill="#141414"/>
</svg>
