<svg width="33" height="32" viewBox="0 0 33 32" fill="none" xmlns="http://www.w3.org/2000/svg">
<path d="M5.27698 21.94C6.00498 24.8507 6.36898 26.3053 7.45298 27.1533C8.53832 28 10.0383 28 13.0383 28H19.2117C22.2117 28 23.7117 28 24.7983 27.1533C25.8823 26.3053 26.2463 24.8507 26.973 21.94C28.117 17.364 28.689 15.0773 27.489 13.5387C26.2877 12 23.929 12 19.213 12H13.0383C8.32098 12 5.96365 12 4.76232 13.5387C4.05698 14.4413 3.96232 15.6027 4.23698 17.3333" stroke="#141414" stroke-width="1.5" stroke-linecap="round"/>
<path d="M26.125 12.6667L25.1783 9.19334C24.813 7.85334 24.6303 7.184 24.2557 6.67867C23.8821 6.17662 23.3747 5.78987 22.7917 5.56267C22.205 5.33334 21.5117 5.33334 20.125 5.33334M6.125 12.6667L7.07167 9.19334C7.437 7.85334 7.61967 7.184 7.99433 6.67867C8.3679 6.17662 8.87525 5.78987 9.45833 5.56267C10.045 5.33334 10.7383 5.33334 12.125 5.33334" stroke="#141414" stroke-width="1.5"/>
<path d="M12.125 5.33333C12.125 4.97971 12.2655 4.64057 12.5155 4.39052C12.7656 4.14048 13.1047 4 13.4583 4H18.7917C19.1453 4 19.4844 4.14048 19.7345 4.39052C19.9845 4.64057 20.125 4.97971 20.125 5.33333C20.125 5.68696 19.9845 6.02609 19.7345 6.27614C19.4844 6.52619 19.1453 6.66667 18.7917 6.66667H13.4583C13.1047 6.66667 12.7656 6.52619 12.5155 6.27614C12.2655 6.02609 12.125 5.68696 12.125 5.33333Z" stroke="#141414" stroke-width="1.5"/>
</svg>
