<svg width="35" height="34" viewBox="0 0 35 34" fill="none" xmlns="http://www.w3.org/2000/svg">
<path d="M6.29163 25.5C6.29163 23.9971 6.88865 22.5558 7.95135 21.4931C9.01406 20.4304 10.4554 19.8333 11.9583 19.8333H23.2916C24.7945 19.8333 26.2359 20.4304 27.2986 21.4931C28.3613 22.5558 28.9583 23.9971 28.9583 25.5C28.9583 26.2514 28.6598 26.9721 28.1284 27.5035C27.5971 28.0348 26.8764 28.3333 26.125 28.3333H9.12496C8.37351 28.3333 7.65284 28.0348 7.12149 27.5035C6.59014 26.9721 6.29163 26.2514 6.29163 25.5Z" stroke="#141414" stroke-width="1.5" stroke-linejoin="round"/>
<path d="M17.625 14.1667C19.9722 14.1667 21.875 12.2639 21.875 9.91667C21.875 7.56946 19.9722 5.66667 17.625 5.66667C15.2778 5.66667 13.375 7.56946 13.375 9.91667C13.375 12.2639 15.2778 14.1667 17.625 14.1667Z" stroke="#141414" stroke-width="1.5"/>
</svg>
