<svg width="30" height="30" viewBox="0 0 30 30" fill="none" xmlns="http://www.w3.org/2000/svg">
                                    <path d="M25.2803 15.6573C24.5478 11.756 24.1828 9.80476 22.7928 8.65226C21.4066 7.49976 19.4216 7.49976 15.4528 7.49976H14.5503C10.5816 7.49976 8.59656 7.49976 7.20781 8.65226C5.82031 9.80476 5.45406 11.756 4.72156 15.6573C3.69406 21.1435 3.17906 23.886 4.67906 25.6935C6.17781 27.4998 8.96781 27.4998 14.5491 27.4998H15.4516C21.0328 27.4998 23.8241 27.4998 25.3228 25.6935C26.1928 24.6435 26.3853 23.281 26.1928 21.2498M11.2503 7.49976V6.24976C11.2503 5.25519 11.6454 4.30137 12.3487 3.59811C13.0519 2.89484 14.0057 2.49976 15.0003 2.49976C15.9949 2.49976 16.9487 2.89484 17.652 3.59811C18.3552 4.30137 18.7503 5.25519 18.7503 6.24976V7.49976" stroke="white" stroke-width="1.5" stroke-linecap="round"/>
                                </svg>