<svg width="30" height="30" viewBox="0 0 30 30" fill="none" xmlns="http://www.w3.org/2000/svg">
                                        <path d="M28.2656 17.9062L24.4922 5.34375H15.8789V3.78516C15.8789 3.36328 15.457 2.92969 15.0234 2.92969C14.6016 2.92969 14.168 3.35156 14.168 3.78516V5.35547H5.55469L1.78125 17.9062H1.69922H1.27734C1.27734 20.7539 3.58594 23.0742 6.44531 23.0742C9.30469 23.0742 11.6133 20.7656 11.6133 17.9062H11.1211H11.0391L7.47656 6.12891H14.2383V24.457H7.54688V27.082H8.40234H15.0234H21.6445H22.5V24.457H15.8086V6.12891H22.5703L19.0078 17.9062H18.9258H18.4336C18.4336 20.7539 20.7422 23.0742 23.6016 23.0742C26.4609 23.0742 28.7695 20.7656 28.7695 17.9062H28.3477H28.2656ZM9.86719 17.9062H3.02344L6.41016 6.48047L9.86719 17.9062ZM20.1797 17.9062L23.6367 6.48047L27.0234 17.9062H20.1797Z" fill="white"/>
                                    </svg>