
<svg xmlns="http://www.w3.org/2000/svg" width="16" height="14" viewBox="0 0 16 14" fill="none">
                                                                <path fill-rule="evenodd" clip-rule="evenodd"
                                                                      d="M7.38892 11.3667L6.11892 10.2555L6.78892 9.64299L8.91892 11.5067V12.1192L6.78892 13.983L6.07892 13.3617L7.34892 12.2505H5.49892C5.17024 12.2517 4.84456 12.1959 4.54065 12.0863C4.23673 11.9768 3.96061 11.8157 3.7282 11.6124C3.49579 11.409 3.31169 11.1674 3.18652 10.9015C3.06136 10.6356 2.99759 10.3506 2.99892 10.063V5.20675C2.5198 5.11749 2.07943 4.91118 1.72892 4.61175C1.38078 4.30397 1.14393 3.91331 1.0479 3.48851C0.951868 3.06371 1.00091 2.62357 1.18892 2.223C1.37866 1.82378 1.69936 1.48272 2.1105 1.24288C2.52164 1.00305 3.00479 0.875207 3.49892 0.875495C3.84188 0.869044 4.18256 0.925683 4.49892 1.04175C4.80197 1.15083 5.07732 1.31139 5.30903 1.51414C5.54075 1.7169 5.72425 1.95782 5.84892 2.223C5.98192 2.50037 6.04592 2.79875 6.03892 3.098C6.03904 3.60228 5.84003 4.09111 5.47557 4.48177C5.11112 4.87242 4.6036 5.14089 4.03892 5.24174V10.0542C4.03892 10.4023 4.19695 10.7362 4.47826 10.9823C4.75956 11.2285 5.14109 11.3667 5.53892 11.3667H7.38892ZM2.70892 4.14799C2.99744 4.31619 3.34363 4.39174 3.68862 4.3618C4.03362 4.33187 4.35611 4.19829 4.60125 3.98379C4.84639 3.76929 4.99905 3.48711 5.03327 3.18524C5.06748 2.88337 4.98114 2.58045 4.78892 2.328C4.62118 2.11055 4.38497 1.94035 4.10892 1.838C3.83644 1.74088 3.5372 1.71652 3.24892 1.768C2.95693 1.8174 2.68852 1.94213 2.47823 2.12614C2.26793 2.31015 2.12538 2.54501 2.06892 2.8005C2.01009 3.05274 2.03793 3.31457 2.14892 3.553C2.26592 3.79537 2.45992 4.00187 2.70892 4.14799ZM13.0389 9.66049C13.5189 9.74624 13.9609 9.95362 14.3089 10.2555C14.7166 10.6144 14.9702 11.0856 15.0267 11.5892C15.0832 12.0929 14.9391 12.5982 14.6189 13.0196C14.4132 13.2879 14.1422 13.5131 13.8253 13.6788C13.5083 13.8446 13.1534 13.9468 12.7859 13.9782C12.4184 14.0097 12.0476 13.9695 11.6999 13.8606C11.3523 13.7517 11.0366 13.5767 10.7754 13.3484C10.5143 13.12 10.3142 12.8438 10.1895 12.5397C10.0648 12.2356 10.0187 11.9111 10.0544 11.5896C10.0901 11.268 10.2068 10.9574 10.396 10.6799C10.5853 10.4025 10.8424 10.1652 11.1489 9.98512C11.4179 9.82587 11.7199 9.71562 12.0389 9.66137V4.80424C12.0389 4.45615 11.8809 4.12231 11.5996 3.87617C11.3183 3.63003 10.9367 3.49175 10.5389 3.49175H8.68892L9.95892 4.603L9.24892 5.22425L7.11892 3.3605V2.748L9.24892 0.884245L9.95892 1.5055L8.68892 2.61675H10.5389C10.8676 2.61559 11.1933 2.67138 11.4972 2.7809C11.8011 2.89042 12.0772 3.05151 12.3096 3.25487C12.542 3.45823 12.7261 3.69984 12.8513 3.96576C12.9765 4.23168 13.0402 4.51665 13.0389 4.80424V9.66049ZM12.6879 13.1106C12.9451 13.088 13.1913 13.0077 13.4026 12.8773C13.6139 12.7469 13.783 12.571 13.8937 12.3666C14.0044 12.1622 14.0528 11.9362 14.0343 11.7106C14.0157 11.4849 13.9309 11.2673 13.7879 11.0789C13.6202 10.8614 13.384 10.6912 13.1079 10.5889C12.8357 10.4919 12.5369 10.4676 12.2489 10.5189C11.9569 10.5683 11.6885 10.693 11.4782 10.877C11.2679 11.061 11.1254 11.2959 11.0689 11.5514C11.0101 11.8036 11.0379 12.0654 11.1489 12.3039C11.2718 12.5655 11.4881 12.7854 11.7654 12.9308C12.0427 13.0761 12.3663 13.1392 12.6879 13.1106Z"
                                                                      fill="#444444" />
                                                            </svg>