<svg xmlns="http://www.w3.org/2000/svg" width="16" height="18" viewBox="0 0 16 18" fill="none">
                                        <path d="M0.125 16.3125C0.125 17.2441 0.880859 18 1.8125 18H14.1875C15.1191 18 15.875 17.2441 15.875 16.3125V6.75H0.125V16.3125ZM11.375 9.42188C11.375 9.18984 11.5648 9 11.7969 9H13.2031C13.4352 9 13.625 9.18984 13.625 9.42188V10.8281C13.625 11.0602 13.4352 11.25 13.2031 11.25H11.7969C11.5648 11.25 11.375 11.0602 11.375 10.8281V9.42188ZM11.375 13.9219C11.375 13.6898 11.5648 13.5 11.7969 13.5H13.2031C13.4352 13.5 13.625 13.6898 13.625 13.9219V15.3281C13.625 15.5602 13.4352 15.75 13.2031 15.75H11.7969C11.5648 15.75 11.375 15.5602 11.375 15.3281V13.9219ZM6.875 9.42188C6.875 9.18984 7.06484 9 7.29688 9H8.70312C8.93516 9 9.125 9.18984 9.125 9.42188V10.8281C9.125 11.0602 8.93516 11.25 8.70312 11.25H7.29688C7.06484 11.25 6.875 11.0602 6.875 10.8281V9.42188ZM6.875 13.9219C6.875 13.6898 7.06484 13.5 7.29688 13.5H8.70312C8.93516 13.5 9.125 13.6898 9.125 13.9219V15.3281C9.125 15.5602 8.93516 15.75 8.70312 15.75H7.29688C7.06484 15.75 6.875 15.5602 6.875 15.3281V13.9219ZM2.375 9.42188C2.375 9.18984 2.56484 9 2.79688 9H4.20312C4.43516 9 4.625 9.18984 4.625 9.42188V10.8281C4.625 11.0602 4.43516 11.25 4.20312 11.25H2.79688C2.56484 11.25 2.375 11.0602 2.375 10.8281V9.42188ZM2.375 13.9219C2.375 13.6898 2.56484 13.5 2.79688 13.5H4.20312C4.43516 13.5 4.625 13.6898 4.625 13.9219V15.3281C4.625 15.5602 4.43516 15.75 4.20312 15.75H2.79688C2.56484 15.75 2.375 15.5602 2.375 15.3281V13.9219ZM14.1875 2.25H12.5V0.5625C12.5 0.253125 12.2469 0 11.9375 0H10.8125C10.5031 0 10.25 0.253125 10.25 0.5625V2.25H5.75V0.5625C5.75 0.253125 5.49687 0 5.1875 0H4.0625C3.75312 0 3.5 0.253125 3.5 0.5625V2.25H1.8125C0.880859 2.25 0.125 3.00586 0.125 3.9375V5.625H15.875V3.9375C15.875 3.00586 15.1191 2.25 14.1875 2.25Z" fill="white"/>
                                    </svg>