<svg xmlns="http://www.w3.org/2000/svg" width="34" height="34" viewBox="0 0 34 34" fill="none">
                        <path fill-rule="evenodd" clip-rule="evenodd" d="M5.66732 17.0002C5.66752 14.8191 6.29704 12.6845 7.48035 10.8524C8.66366 9.02025 10.3505 7.56848 12.3384 6.67127C14.3263 5.77405 16.5309 5.46949 18.6877 5.79415C20.8444 6.11881 22.8616 7.05888 24.4973 8.50157C26.133 9.94426 27.3177 11.8283 27.9092 13.9276C28.5007 16.0269 28.4739 18.2522 27.8321 20.3367C27.1902 22.4211 25.9605 24.276 24.2905 25.6789C22.6205 27.0818 20.5812 27.973 18.4173 28.2457V19.8335H21.2507C21.6264 19.8335 21.9867 19.6842 22.2524 19.4186C22.5181 19.1529 22.6673 18.7926 22.6673 18.4168C22.6673 18.0411 22.5181 17.6808 22.2524 17.4151C21.9867 17.1494 21.6264 17.0002 21.2507 17.0002H18.4173V14.1668C18.4173 13.7911 18.5666 13.4308 18.8323 13.1651C19.0979 12.8994 19.4583 12.7502 19.834 12.7502H20.5423C20.918 12.7502 21.2784 12.6009 21.5441 12.3352C21.8097 12.0696 21.959 11.7092 21.959 11.3335C21.959 10.9578 21.8097 10.5974 21.5441 10.3318C21.2784 10.0661 20.918 9.91683 20.5423 9.91683H19.834C18.7068 9.91683 17.6258 10.3646 16.8288 11.1616C16.0318 11.9587 15.584 13.0397 15.584 14.1668V17.0002H12.7507C12.3749 17.0002 12.0146 17.1494 11.7489 17.4151C11.4832 17.6808 11.334 18.0411 11.334 18.4168C11.334 18.7926 11.4832 19.1529 11.7489 19.4186C12.0146 19.6842 12.3749 19.8335 12.7507 19.8335H15.584V28.2457C12.845 27.9006 10.3262 26.5677 8.5003 24.4971C6.67442 22.4266 5.66706 19.7608 5.66732 17.0002ZM17.0007 31.1668C24.8249 31.1668 31.1673 24.8244 31.1673 17.0002C31.1673 9.17591 24.8249 2.8335 17.0007 2.8335C9.1764 2.8335 2.83398 9.17591 2.83398 17.0002C2.83398 24.8244 9.1764 31.1668 17.0007 31.1668Z" fill="#272727"/>
                    </svg>