<svg width="34" height="42" viewBox="0 0 34 42" fill="none" xmlns="http://www.w3.org/2000/svg">
	<path d="M16.9997 21C18.1455 21 19.1268 20.5916 19.9434 19.775C20.7587 18.9597 21.1663 17.9791 21.1663 16.8333C21.1663 15.6875 20.7587 14.7062 19.9434 13.8895C19.1268 13.0743 18.1455 12.6666 16.9997 12.6666C15.8538 12.6666 14.8733 13.0743 14.058 13.8895C13.2413 14.7062 12.833 15.6875 12.833 16.8333C12.833 17.9791 13.2413 18.9597 14.058 19.775C14.8733 20.5916 15.8538 21 16.9997 21ZM16.9997 36.3125C21.2358 32.4236 24.3781 28.8902 26.4268 25.7125C28.4754 22.5361 29.4997 19.7152 29.4997 17.25C29.4997 13.4652 28.2927 10.3659 25.8788 7.95204C23.4663 5.53954 20.5066 4.33329 16.9997 4.33329C13.4927 4.33329 10.5323 5.53954 8.11842 7.95204C5.70592 10.3659 4.49967 13.4652 4.49967 17.25C4.49967 19.7152 5.52398 22.5361 7.57259 25.7125C9.6212 28.8902 12.7636 32.4236 16.9997 36.3125ZM16.9997 41.8333C11.4094 37.0764 7.2344 32.6576 4.47467 28.577C1.71356 24.4979 0.333008 20.7222 0.333008 17.25C0.333008 12.0416 2.0087 7.89232 5.36009 4.80204C8.71009 1.71176 12.59 0.166626 16.9997 0.166626C21.4094 0.166626 25.2893 1.71176 28.6393 4.80204C31.9906 7.89232 33.6663 12.0416 33.6663 17.25C33.6663 20.7222 32.2865 24.4979 29.5268 28.577C26.7656 32.6576 22.59 37.0764 16.9997 41.8333Z" fill="#231F20"/>
</svg>