<svg xmlns="http://www.w3.org/2000/svg" width="46" height="47" viewBox="0 0 46 47" fill="none">
                            <circle cx="23" cy="23.5" r="23" fill="#E6E6E6"/>
                            <path d="M16.5 27H27.5V26H16.5V27ZM16.5 24H27.5V23H16.5V24ZM16.5 21H27.5V20H16.5V21ZM31 33.577L27.923 30.5H14.616C14.1553 30.5 13.7707 30.346 13.462 30.038C13.1533 29.73 12.9993 29.3457 13 28.885V18.115C13 17.655 13.1543 17.2707 13.463 16.962C13.7717 16.6533 14.1557 16.4993 14.615 16.5H29.385C29.845 16.5 30.229 16.654 30.537 16.962C30.845 17.27 30.9993 17.6543 31 18.115V33.577ZM14.616 29.5H28.35L30 31.144V18.116C30 17.962 29.936 17.8207 29.808 17.692C29.68 17.5633 29.539 17.4993 29.385 17.5H14.615C14.4617 17.5 14.3207 17.564 14.192 17.692C14.0633 17.82 13.9993 17.961 14 18.115V28.885C14 29.0383 14.064 29.1793 14.192 29.308C14.32 29.4367 14.461 29.5007 14.615 29.5" fill="#2A2A2A"/>
                        </svg>