<svg xmlns="http://www.w3.org/2000/svg" width="18" height="15" viewBox="0 0 18 15" fill="none">
                            <path d="M13 5.5C13 2.7375 10.0906 0.5 6.5 0.5C2.90937 0.5 0 2.7375 0 5.5C0 6.57187 0.440625 7.55937 1.1875 8.375C0.76875 9.31875 0.078125 10.0687 0.06875 10.0781C0 10.15 -0.01875 10.2562 0.021875 10.35C0.0625 10.4437 0.15 10.5 0.25 10.5C1.39375 10.5 2.34062 10.1156 3.02187 9.71875C4.02812 10.2094 5.21875 10.5 6.5 10.5C10.0906 10.5 13 8.2625 13 5.5ZM16.8125 12.375C17.5594 11.5625 18 10.5719 18 9.5C18 7.40937 16.3281 5.61875 13.9594 4.87187C13.9875 5.07812 14 5.2875 14 5.5C14 8.80937 10.6344 11.5 6.5 11.5C6.1625 11.5 5.83437 11.475 5.50938 11.4406C6.49375 13.2375 8.80625 14.5 11.5 14.5C12.7812 14.5 13.9719 14.2125 14.9781 13.7187C15.6594 14.1156 16.6063 14.5 17.75 14.5C17.85 14.5 17.9406 14.4406 17.9781 14.35C18.0187 14.2594 18 14.1531 17.9312 14.0781C17.9219 14.0687 17.2313 13.3219 16.8125 12.375Z"
                                  fill="#484848"/>
                        </svg>