<svg style="margin-bottom: 4px;" xmlns="http://www.w3.org/2000/svg" width="19" height="18" viewBox="0 0 19 18" fill="none">
                                            <g clip-path="url(#clip0_347_326)">
                                                <path d="M13.1348 7C13.1348 4.2375 10.2254 2 6.63477 2C3.04414 2 0.134766 4.2375 0.134766 7C0.134766 8.07187 0.575391 9.05937 1.32227 9.875C0.903516 10.8187 0.212891 11.5687 0.203516 11.5781C0.134766 11.65 0.116016 11.7562 0.156641 11.85C0.197266 11.9437 0.284766 12 0.384766 12C1.52852 12 2.47539 11.6156 3.15664 11.2187C4.16289 11.7094 5.35352 12 6.63477 12C10.2254 12 13.1348 9.7625 13.1348 7ZM16.9473 13.875C17.6941 13.0625 18.1348 12.0719 18.1348 11C18.1348 8.90937 16.4629 7.11875 14.0941 6.37187C14.1223 6.57812 14.1348 6.7875 14.1348 7C14.1348 10.3094 10.7691 13 6.63477 13C6.29727 13 5.96914 12.975 5.64414 12.9406C6.62852 14.7375 8.94102 16 11.6348 16C12.916 16 14.1066 15.7125 15.1129 15.2187C15.7941 15.6156 16.741 16 17.8848 16C17.9848 16 18.0754 15.9406 18.1129 15.85C18.1535 15.7594 18.1348 15.6531 18.066 15.5781C18.0566 15.5687 17.366 14.8219 16.9473 13.875Z" fill="#2396E6"/>
                                            </g>
                                            <defs>
                                                <clipPath id="clip0_347_326">
                                                    <rect width="18" height="18" fill="white" transform="translate(0.134766)"/>
                                                </clipPath>
                                            </defs>
                                        </svg>