<svg  xmlns="http://www.w3.org/2000/svg"
                                width="17" height="17" viewBox="0 0 17 17" fill="none">
                                <g clip-path="url(#clip0_1425_12145)">
                                    <path
                                        d="M12.6458 0.645917C12.6923 0.599354 12.7474 0.562411 12.8082 0.537205C12.8689 0.511998 12.934 0.499023 12.9998 0.499023C13.0656 0.499023 13.1307 0.511998 13.1914 0.537205C13.2522 0.562411 13.3074 0.599354 13.3538 0.645917L16.3538 3.64592C16.4004 3.69236 16.4373 3.74754 16.4625 3.80828C16.4877 3.86903 16.5007 3.93415 16.5007 3.99992C16.5007 4.06568 16.4877 4.13081 16.4625 4.19155C16.4373 4.2523 16.4004 4.30747 16.3538 4.35392L6.35381 14.3539C6.30582 14.4016 6.24867 14.439 6.18581 14.4639L1.18581 16.4639C1.09494 16.5003 0.995402 16.5092 0.899526 16.4895C0.803649 16.4699 0.715653 16.4225 0.646447 16.3533C0.57724 16.2841 0.529867 16.1961 0.510199 16.1002C0.490532 16.0043 0.499435 15.9048 0.535806 15.8139L2.53581 10.8139C2.56073 10.7511 2.59816 10.6939 2.64581 10.6459L12.6458 0.645917ZM11.7068 2.99992L13.9998 5.29292L15.2928 3.99992L12.9998 1.70692L11.7068 2.99992ZM13.2928 5.99992L10.9998 3.70692L4.49981 10.2069V10.4999H4.99981C5.13241 10.4999 5.25959 10.5526 5.35336 10.6464C5.44713 10.7401 5.49981 10.8673 5.49981 10.9999V11.4999H5.99981C6.13241 11.4999 6.25959 11.5526 6.35336 11.6464C6.44713 11.7401 6.49981 11.8673 6.49981 11.9999V12.4999H6.79281L13.2928 5.99992ZM3.53181 11.1749L3.42581 11.2809L1.89781 15.1019L5.71881 13.5739L5.82481 13.4679C5.72943 13.4323 5.6472 13.3684 5.58912 13.2847C5.53104 13.2011 5.49988 13.1017 5.49981 12.9999V12.4999H4.99981C4.8672 12.4999 4.74002 12.4472 4.64625 12.3535C4.55248 12.2597 4.49981 12.1325 4.49981 11.9999V11.4999H3.99981C3.89799 11.4998 3.79862 11.4687 3.71498 11.4106C3.63135 11.3525 3.56744 11.2703 3.53181 11.1749Z"
                                        fill="white" />
                                </g>
                                <defs>
                                    <clipPath id="clip0_1425_12145">
                                        <rect width="16" height="16" fill="white" transform="translate(0.5 0.5)" />
                                    </clipPath>
                                </defs>
                            </svg>