<svg width="38" height="38" viewBox="0 0 38 38" fill="none" xmlns="http://www.w3.org/2000/svg">
                            <path d="M35.5625 37.75C31.0833 37.75 26.7174 36.7514 22.4646 34.7542C18.2104 32.7583 14.4431 30.1194 11.1625 26.8375C7.88056 23.5569 5.24167 19.7896 3.24583 15.5354C1.24861 11.2826 0.25 6.91667 0.25 2.4375C0.25 1.8125 0.458333 1.29167 0.875 0.875C1.29167 0.458333 1.8125 0.25 2.4375 0.25H10.875C11.3611 0.25 11.7951 0.40625 12.1771 0.71875C12.559 1.03125 12.7847 1.43056 12.8542 1.91667L14.2083 9.20833C14.2778 9.69444 14.2694 10.1368 14.1833 10.5354C14.0958 10.9354 13.8958 11.2917 13.5833 11.6042L8.53125 16.7083C9.98958 19.2083 11.8215 21.5521 14.0271 23.7396C16.2312 25.9271 18.6528 27.8194 21.2917 29.4167L26.1875 24.5208C26.5 24.2083 26.9083 23.9736 27.4125 23.8167C27.9153 23.6611 28.4097 23.6181 28.8958 23.6875L36.0833 25.1458C36.5694 25.25 36.9687 25.484 37.2812 25.8479C37.5937 26.2132 37.75 26.6389 37.75 27.125V35.5625C37.75 36.1875 37.5417 36.7083 37.125 37.125C36.7083 37.5417 36.1875 37.75 35.5625 37.75ZM6.55208 12.75L9.98958 9.3125L9.10417 4.41667H4.46875C4.64236 5.84028 4.88542 7.24653 5.19792 8.63542C5.51042 10.0243 5.96181 11.3958 6.55208 12.75ZM25.1979 31.3958C26.5521 31.9861 27.9326 32.4549 29.3396 32.8021C30.7451 33.1493 32.1597 33.375 33.5833 33.4792V28.8958L28.6875 27.9062L25.1979 31.3958Z" fill="#231F20"/>
                        </svg>