<svg xmlns="http://www.w3.org/2000/svg"  width="34" height="34" viewBox="0 0 34 34" fill="none">
                        <path d="M17.0001 15.5834L11.3335 29.75M14.13 23.4771C15.6712 24.1605 17.4058 24.2718 19.0218 23.7909C20.6377 23.3099 22.0292 22.2684 22.946 20.8534C23.8627 19.4384 24.2447 17.7428 24.0233 16.0714C23.8018 14.4 22.9914 12.8624 21.7378 11.735C20.4842 10.6076 18.8695 9.9643 17.184 9.92082C15.4986 9.87733 13.8529 10.4365 12.5427 11.4977C11.2326 12.559 10.344 14.0528 10.0367 15.7105C9.72932 17.3683 10.0234 19.0813 10.866 20.5417" stroke="#272727" stroke-width="1.5" stroke-linecap="round" stroke-linejoin="round"/>
                        <path d="M17.0007 31.1668C24.8247 31.1668 31.1673 24.8242 31.1673 17.0002C31.1673 9.17613 24.8247 2.8335 17.0007 2.8335C9.17662 2.8335 2.83398 9.17613 2.83398 17.0002C2.83398 24.8242 9.17662 31.1668 17.0007 31.1668Z" stroke="#272727" stroke-width="1.5" stroke-linecap="round" stroke-linejoin="round"/>
                    </svg>