<svg width="22" height="20" viewBox="0 0 22 20" fill="none"
                                    xmlns="http://www.w3.org/2000/svg">
                                    <path
                                        d="M1.83301 17.3333C2.04125 17.6235 2.31698 17.8585 2.6364 18.0182C2.95581 18.1779 3.3093 18.2575 3.66634 18.25C4.02338 18.2575 4.37687 18.1779 4.69629 18.0182C5.0157 17.8585 5.29143 17.6235 5.49967 17.3333C5.70791 17.0432 5.98365 16.8082 6.30306 16.6484C6.62248 16.4887 6.97597 16.4092 7.33301 16.4167C7.69005 16.4092 8.04354 16.4887 8.36295 16.6484C8.68237 16.8082 8.9581 17.0432 9.16634 17.3333C9.37458 17.6235 9.65031 17.8585 9.96973 18.0182C10.2891 18.1779 10.6426 18.2575 10.9997 18.25C11.3567 18.2575 11.7102 18.1779 12.0296 18.0182C12.349 17.8585 12.6248 17.6235 12.833 17.3333C13.0412 17.0432 13.317 16.8082 13.6364 16.6484C13.9558 16.4887 14.3093 16.4092 14.6663 16.4167C15.0234 16.4092 15.3769 16.4887 15.6963 16.6484C16.0157 16.8082 16.2914 17.0432 16.4997 17.3333C16.7079 17.6235 16.9836 17.8585 17.3031 18.0182C17.6225 18.1779 17.976 18.2575 18.333 18.25C18.69 18.2575 19.0435 18.1779 19.363 18.0182C19.6824 17.8585 19.9581 17.6235 20.1663 17.3333M3.66634 15.5L2.74967 10.9167H19.2497L17.4163 14.5833M4.58301 10.9167V5.41667H11.9163L15.583 10.9167M6.41634 5.41667V1.75H5.49967"
                                        stroke="white" stroke-width="2" stroke-linecap="round"
                                        stroke-linejoin="round" />
                                </svg>