<svg xmlns="http://www.w3.org/2000/svg" width="22" height="18" viewBox="0 0 22 18"
                                        fill="none">
                                        <path fill-rule="evenodd" clip-rule="evenodd"
                                            d="M19.1888 3.2045L21.4388 8.4545C21.4789 8.54785 21.4996 8.6484 21.4995 8.75V14C21.4995 14.1989 21.4205 14.3897 21.2799 14.5303C21.1392 14.671 20.9484 14.75 20.7495 14.75H19.143C18.9799 15.3937 18.6067 15.9646 18.0827 16.3724C17.5586 16.7802 16.9136 17.0016 16.2495 17.0016C15.5855 17.0016 14.9404 16.7802 14.4164 16.3724C13.8923 15.9646 13.5192 15.3937 13.356 14.75H8.64302C8.46047 15.457 8.02635 16.0731 7.42201 16.483C6.81768 16.8928 6.08463 17.0681 5.36027 16.9761C4.63591 16.8841 3.96997 16.5311 3.48728 15.9832C3.00459 15.4353 2.73828 14.7302 2.73828 14C2.73828 13.2698 3.00459 12.5647 3.48728 12.0168C3.96997 11.4689 4.63591 11.1159 5.36027 11.0239C6.08463 10.9319 6.81768 11.1072 7.42201 11.517C8.02635 11.9269 8.46047 12.543 8.64302 13.25H13.356C13.4558 12.8676 13.6303 12.5088 13.8695 12.1942C14.1087 11.8796 14.4078 11.6154 14.7495 11.417V2H3.49952V0.5H15.4995C15.6984 0.5 15.8892 0.579018 16.0299 0.71967C16.1705 0.860322 16.2495 1.05109 16.2495 1.25V2.75H18.4995C18.6463 2.74992 18.7899 2.79295 18.9124 2.87375C19.0349 2.95455 19.131 3.06956 19.1888 3.2045ZM4.91616 15.2472C5.16284 15.412 5.45285 15.5 5.74952 15.5C6.14722 15.4996 6.52852 15.3414 6.80974 15.0602C7.09096 14.779 7.24912 14.3977 7.24952 14C7.24952 13.7033 7.16154 13.4133 6.99672 13.1666C6.8319 12.92 6.59763 12.7277 6.32354 12.6142C6.04945 12.5006 5.74785 12.4709 5.45688 12.5288C5.16591 12.5867 4.89864 12.7296 4.68886 12.9393C4.47908 13.1491 4.33622 13.4164 4.27834 13.7074C4.22046 13.9983 4.25017 14.2999 4.3637 14.574C4.47723 14.8481 4.66949 15.0824 4.91616 15.2472ZM18.0045 4.25H16.2495V8H19.6125L18.0045 4.25ZM15.4162 15.2472C15.6628 15.412 15.9528 15.5 16.2495 15.5C16.6472 15.4996 17.0285 15.3414 17.3097 15.0602C17.591 14.779 17.7491 14.3977 17.7495 14C17.7495 13.7033 17.6615 13.4133 17.4967 13.1666C17.3319 12.92 17.0976 12.7277 16.8235 12.6142C16.5495 12.5006 16.2479 12.4709 15.9569 12.5288C15.6659 12.5867 15.3986 12.7296 15.1889 12.9393C14.9791 13.1491 14.8362 13.4164 14.7783 13.7074C14.7205 13.9983 14.7502 14.2999 14.8637 14.574C14.9772 14.8481 15.1695 15.0824 15.4162 15.2472ZM19.143 13.25H19.9995V9.5H16.2495V11C16.9128 11.0018 17.5568 11.2238 18.0804 11.6309C18.6041 12.0381 18.9778 12.6076 19.143 13.25ZM11 8H2V9.5H11V8ZM8 4.25H0.5V5.75H8V4.25Z"
                                            fill="#2E2E2E" />
                                    </svg>