<svg xmlns="http://www.w3.org/2000/svg" width="60" height="50" viewBox="0 0 57 57"
                                    fill="none">
                                    <g clip-path="url(#clip0_1345_7944)">
                                        <path
                                            d="M34.0519 8.05382C33.8991 6.92117 33.315 5.91599 32.4065 5.22297C30.5289 3.79129 27.8393 4.15444 26.4099 6.0301C25.3953 7.35958 24.0695 11.0322 23.187 13.7009C22.3046 11.0322 20.9787 7.35958 19.964 6.0301C18.5337 4.154 15.844 3.79229 13.9674 5.22297C13.0589 5.91588 12.475 6.92128 12.322 8.05382C12.1701 9.18648 12.4673 10.3107 13.1608 11.2191C14.7438 13.2956 21.9066 17.3006 22.7188 17.7502C22.8651 17.8313 23.0264 17.8714 23.1867 17.8714C23.3467 17.8714 23.5002 17.8188 23.6432 17.7408L23.6547 17.7502C24.467 17.3005 31.6298 13.2956 33.2127 11.2191C33.9066 10.3107 34.2038 9.18648 34.0519 8.05382ZM14.6968 10.0474C14.3166 9.54918 14.1534 8.93276 14.2373 8.31144C14.3212 7.69011 14.6411 7.13915 15.1393 6.75908C15.5639 6.43589 16.0629 6.27925 16.5592 6.27925C17.2668 6.27925 17.9668 6.59721 18.4283 7.20205C19.2849 8.32524 20.6217 12.0712 21.5256 14.8408C18.7104 13.1793 15.4969 11.097 14.6968 10.0474ZM31.6772 10.0474C30.8772 11.0961 27.6646 13.1787 24.8484 14.8402C25.7522 12.0711 27.0891 8.32513 27.9458 7.20194C28.4071 6.59721 29.1072 6.27914 29.8149 6.27914C30.3103 6.27914 30.8112 6.43578 31.2348 6.75897C31.733 7.13915 32.0527 7.69011 32.1367 8.31133C32.2208 8.93265 32.0574 9.54918 31.6772 10.0474Z"
                                            fill="#00C3FF" />
                                        <path
                                            d="M23.1855 18.8386C23.0638 18.8386 22.942 18.8155 22.8269 18.7698L10.7506 13.9392C10.2552 13.7406 10.0137 13.1787 10.2119 12.683C10.41 12.1873 10.977 11.9486 11.4675 12.1447L23.1854 16.8318L34.9031 12.1446C35.3937 11.9489 35.9607 12.1871 36.1588 12.6829C36.3568 13.1786 36.1155 13.7405 35.6201 13.9391L23.5437 18.7697C23.429 18.8155 23.3073 18.8386 23.1855 18.8386Z"
                                            fill="#00AAF0" />
                                        <path
                                            d="M53.1342 33.3301H41.541V46.8556H56.0325C56.566 46.8556 56.9986 46.4229 56.9986 45.8895V37.1945C56.9986 35.0602 55.2684 33.3301 53.1342 33.3301Z"
                                            fill="#00AAF0" />
                                        <path
                                            d="M41.543 35.2617H53.1362C54.2034 35.2617 55.0685 36.1267 55.0685 37.1939V46.855H41.543V35.2617Z"
                                            fill="#0096DC" />
                                        <path
                                            d="M54.991 46.8552C54.5211 43.5792 51.711 41.0586 48.3051 41.0586C44.8991 41.0586 42.0891 43.5792 41.6191 46.8552H54.991Z"
                                            fill="#007DC8" />
                                        <path
                                            d="M49.2718 21.7363H41.543V25.6008H51.6871C51.9538 25.6008 52.1701 25.3844 52.1701 25.1177V24.6346C52.1701 23.034 50.8726 21.7363 49.2718 21.7363Z"
                                            fill="#00AAF0" />
                                        <path
                                            d="M40.5757 17.873H5.79606C5.26258 17.873 4.82996 18.3057 4.82996 18.8392V38.1611H2.89775C2.3637 38.1611 1.93164 38.5938 1.93164 39.1272C1.93164 39.6607 2.3637 40.0934 2.89775 40.0934H8.69438C9.22842 40.0934 9.66048 40.526 9.66048 41.0595C9.66048 41.5929 9.22842 42.0256 8.69438 42.0256H4.82996V45.89C4.82996 46.4235 5.26258 46.8561 5.79606 46.8561H41.5418V18.8392C41.5418 18.3057 41.1092 17.873 40.5757 17.873Z"
                                            fill="#00C3FF" />
                                        <path
                                            d="M19.8722 42.0247C18.8605 41.4205 17.688 41.0586 16.4237 41.0586C15.1593 41.0586 13.9868 41.4205 12.9752 42.0247H0.966105C0.432064 42.0247 0 42.4573 0 42.9908C0 43.5243 0.432064 43.9569 0.966105 43.9569H4.83053V45.8891C4.83053 46.4226 5.26315 46.8552 5.79663 46.8552H41.5424V42.0247H19.8722Z"
                                            fill="#00AAF0" />
                                        <path
                                            d="M48.3051 52.6513C50.973 52.6513 53.1357 50.4886 53.1357 47.8208C53.1357 45.1529 50.973 42.9902 48.3051 42.9902C45.6373 42.9902 43.4746 45.1529 43.4746 47.8208C43.4746 50.4886 45.6373 52.6513 48.3051 52.6513Z"
                                            fill="#5B5D6E" />
                                        <path
                                            d="M16.4243 52.6513C19.0921 52.6513 21.2548 50.4886 21.2548 47.8208C21.2548 45.1529 19.0921 42.9902 16.4243 42.9902C13.7564 42.9902 11.5938 45.1529 11.5938 47.8208C11.5938 50.4886 13.7564 52.6513 16.4243 52.6513Z"
                                            fill="#5B5D6E" />
                                        <path d="M53.1361 33.3304L51.2039 25.6016H41.543V33.3304H53.1361Z"
                                            fill="#B4E6FF" />
                                        <path
                                            d="M16.4237 50.7185C18.0244 50.7185 19.322 49.4209 19.322 47.8202C19.322 46.2195 18.0244 44.9219 16.4237 44.9219C14.823 44.9219 13.5254 46.2195 13.5254 47.8202C13.5254 49.4209 14.823 50.7185 16.4237 50.7185Z"
                                            fill="#C7CFE2" />
                                        <path
                                            d="M16.4231 48.7877C16.9567 48.7877 17.3892 48.3551 17.3892 47.8216C17.3892 47.288 16.9567 46.8555 16.4231 46.8555C15.8896 46.8555 15.457 47.288 15.457 47.8216C15.457 48.3551 15.8896 48.7877 16.4231 48.7877Z"
                                            fill="#7F8499" />
                                        <path
                                            d="M48.3046 50.7185C49.9053 50.7185 51.2029 49.4209 51.2029 47.8202C51.2029 46.2195 49.9053 44.9219 48.3046 44.9219C46.7039 44.9219 45.4062 46.2195 45.4062 47.8202C45.4062 49.4209 46.7039 50.7185 48.3046 50.7185Z"
                                            fill="#C7CFE2" />
                                        <path
                                            d="M48.306 48.7877C48.8395 48.7877 49.2721 48.3551 49.2721 47.8216C49.2721 47.288 48.8395 46.8555 48.306 46.8555C47.7724 46.8555 47.3398 47.288 47.3398 47.8216C47.3398 48.3551 47.7724 48.7877 48.306 48.7877Z"
                                            fill="#7F8499" />
                                        <path
                                            d="M45.4074 27.5338H51.6871L51.204 25.6016H41.543V33.3304H44.4413V28.4999C44.4413 27.9664 44.8739 27.5338 45.4074 27.5338Z"
                                            fill="#9BD6FF" />
                                        <path
                                            d="M41.543 23.668H49.2718C49.8053 23.668 50.2379 24.1006 50.2379 24.6341V25.6002H41.543V23.668Z"
                                            fill="#0096DC" />
                                        <path d="M56.9999 37.1934H54.1016V41.0578H56.9999V37.1934Z" fill="#F1F4FB" />
                                        <path
                                            d="M52.1699 37.1934V39.1256C52.1699 40.1927 53.0351 41.0578 54.1021 41.0578H55.0682V37.1934H52.1699Z"
                                            fill="#FFC850" />
                                        <path
                                            d="M14.4906 24.6348H10.6263C10.0922 24.6348 9.66016 25.0668 9.66016 25.6009V33.3297C9.66016 33.8638 10.0922 34.2958 10.6263 34.2958C11.1603 34.2958 11.5924 33.8638 11.5924 33.3297V30.4314H13.5246C14.0586 30.4314 14.4907 29.9993 14.4907 29.4653C14.4907 28.9313 14.0586 28.4992 13.5246 28.4992H11.5924V26.567H14.4907C15.0247 26.567 15.4568 26.1349 15.4568 25.6009C15.4568 25.0668 15.0246 24.6348 14.4906 24.6348Z"
                                            fill="white" />
                                        <path
                                            d="M23.1846 28.0161C23.1846 26.1518 21.6674 24.6348 19.8032 24.6348H17.388C16.8539 24.6348 16.4219 25.0668 16.4219 25.6009V33.3297C16.4219 33.8638 16.8539 34.2958 17.388 34.2958C17.922 34.2958 18.3541 33.8638 18.3541 33.3297V31.3975H19.7693L21.4147 33.8656C21.6005 34.145 21.9072 34.2959 22.2195 34.2959C22.4034 34.2959 22.5895 34.243 22.7544 34.1336C23.1989 33.8374 23.3187 33.2383 23.0224 32.7939L21.7012 30.812C22.5955 30.203 23.1846 29.1773 23.1846 28.0161ZM18.3541 26.567H19.8032C20.6024 26.567 21.2524 27.217 21.2524 28.0161C21.2524 28.8152 20.6024 29.4653 19.8032 29.4653H18.3541V26.567Z"
                                            fill="white" />
                                        <path
                                            d="M28.9829 26.567C29.5169 26.567 29.949 26.1349 29.949 25.6009C29.949 25.0668 29.5169 24.6348 28.9829 24.6348H25.1184C24.5844 24.6348 24.1523 25.0668 24.1523 25.6009V33.3297C24.1523 33.8638 24.5844 34.2958 25.1184 34.2958H28.9829C29.5169 34.2958 29.949 33.8638 29.949 33.3297C29.949 32.7957 29.5169 32.3636 28.9829 32.3636H26.0846V30.4314H28.0168C28.5508 30.4314 28.9829 29.9993 28.9829 29.4653C28.9829 28.9313 28.5508 28.4992 28.0168 28.4992H26.0846V26.567H28.9829Z"
                                            fill="white" />
                                        <path
                                            d="M35.7446 32.3636H32.8463V30.4314H33.8124C34.3464 30.4314 34.7785 29.9993 34.7785 29.4653C34.7785 28.9313 34.3464 28.4992 33.8124 28.4992H32.8463V26.567H35.7446C36.2786 26.567 36.7107 26.1349 36.7107 25.6009C36.7107 25.0668 36.2786 24.6348 35.7446 24.6348H31.8802C31.3461 24.6348 30.9141 25.0668 30.9141 25.6009V33.3297C30.9141 33.8638 31.3461 34.2958 31.8802 34.2958H35.7446C36.2786 34.2958 36.7107 33.8638 36.7107 33.3297C36.7107 32.7957 36.2786 32.3636 35.7446 32.3636Z"
                                            fill="white" />
                                    </g>
                                    <defs>
                                        <clipPath id="clip0_1345_7944">
                                            <rect width="57" height="57" fill="white" />
                                        </clipPath>
                                    </defs>
                                </svg>