<svg style="margin-bottom: 4px;" xmlns="http://www.w3.org/2000/svg" width="19" height="18" viewBox="0 0 19 18" fill="none">
                                            <path d="M9.13477 9C11.6203 9 13.6348 6.98555 13.6348 4.5C13.6348 2.01445 11.6203 0 9.13477 0C6.64922 0 4.63477 2.01445 4.63477 4.5C4.63477 6.98555 6.64922 9 9.13477 9ZM12.2848 10.125H11.6977C10.9172 10.4836 10.0488 10.6875 9.13477 10.6875C8.2207 10.6875 7.35586 10.4836 6.57188 10.125H5.98477C3.37617 10.125 1.25977 12.2414 1.25977 14.85V16.3125C1.25977 17.2441 2.01562 18 2.94727 18H15.3223C16.2539 18 17.0098 17.2441 17.0098 16.3125V14.85C17.0098 12.2414 14.8934 10.125 12.2848 10.125Z" fill="#2396E6"/>
                                        </svg>