<svg xmlns="http://www.w3.org/2000/svg" width="19" height="19" viewBox="0 0 9 9" fill="none">
                            <path fill-rule="evenodd" clip-rule="evenodd" d="M4.50002 0.46875C4.0276 0.46875 3.57454 0.656417 3.24049 0.990466C2.90644 1.32452 2.71877 1.77758 2.71877 2.25C2.71877 2.72242 2.90644 3.17548 3.24049 3.50953C3.57454 3.84358 4.0276 4.03125 4.50002 4.03125C4.97244 4.03125 5.42551 3.84358 5.75955 3.50953C6.0936 3.17548 6.28127 2.72242 6.28127 2.25C6.28127 1.77758 6.0936 1.32452 5.75955 0.990466C5.42551 0.656417 4.97244 0.46875 4.50002 0.46875ZM3.28127 2.25C3.28127 1.92677 3.40967 1.61677 3.63823 1.38821C3.86679 1.15965 4.17679 1.03125 4.50002 1.03125C4.82325 1.03125 5.13325 1.15965 5.36181 1.38821C5.59037 1.61677 5.71877 1.92677 5.71877 2.25C5.71877 2.57323 5.59037 2.88323 5.36181 3.11179C5.13325 3.34035 4.82325 3.46875 4.50002 3.46875C4.17679 3.46875 3.86679 3.34035 3.63823 3.11179C3.40967 2.88323 3.28127 2.57323 3.28127 2.25ZM4.50002 4.59375C3.63265 4.59375 2.83315 4.791 2.24102 5.124C1.65752 5.4525 1.21877 5.94975 1.21877 6.5625V6.60075C1.2184 7.0365 1.21802 7.58325 1.69765 7.974C1.93352 8.166 2.2639 8.30288 2.71015 8.39288C3.15715 8.48363 3.74027 8.53125 4.50002 8.53125C5.25977 8.53125 5.84252 8.48363 6.29027 8.39288C6.73652 8.30288 7.06652 8.166 7.30277 7.974C7.7824 7.58325 7.78165 7.0365 7.78127 6.60075V6.5625C7.78127 5.94975 7.34252 5.4525 6.7594 5.124C6.1669 4.791 5.36777 4.59375 4.50002 4.59375ZM1.78127 6.5625C1.78127 6.24337 2.01452 5.89688 2.51665 5.6145C3.01015 5.337 3.71065 5.15625 4.5004 5.15625C5.2894 5.15625 5.9899 5.337 6.4834 5.6145C6.9859 5.89688 7.21877 6.24337 7.21877 6.5625C7.21877 7.053 7.20377 7.329 6.94727 7.5375C6.80852 7.65075 6.57602 7.76137 6.17852 7.84162C5.78215 7.92187 5.24027 7.96875 4.50002 7.96875C3.75977 7.96875 3.21752 7.92187 2.82152 7.84162C2.42402 7.76137 2.19152 7.65075 2.05277 7.53787C1.79627 7.329 1.78127 7.053 1.78127 6.5625Z" fill="#3F3F3F"/>
                        </svg>