<svg xmlns="http://www.w3.org/2000/svg" width="24" height="8" viewBox="0 0 24 8"
                                        fill="none">
                                        <path
                                            d="M22.221 7.76714L21.997 6.64214H19.483L19.083 7.75914L17.068 7.76314C18.363 4.65014 19.325 2.34514 19.952 0.846141C20.116 0.454141 20.407 0.254141 20.836 0.257141C21.164 0.260141 21.699 0.260141 22.442 0.258141L24 7.76414L22.221 7.76714ZM20.049 5.10114H21.669L21.064 2.28114L20.049 5.10114ZM7.06 0.256141L9.086 0.258141L5.954 7.76814L3.903 7.76614C3.38725 5.78246 2.87792 3.79711 2.375 1.81014C2.275 1.41414 2.077 1.13714 1.696 1.00614C1.13333 0.817551 0.56794 0.637198 0 0.46514L0 0.258141H3.237C3.797 0.258141 4.124 0.529141 4.229 1.08514C4.335 1.64214 4.601 3.06114 5.029 5.33914L7.06 0.256141ZM11.87 0.258141L10.269 7.76714L8.34 7.76414L9.94 0.256141L11.87 0.258141ZM15.78 0.119141C16.357 0.119141 17.084 0.29914 17.502 0.46514L17.164 2.02114C16.786 1.86914 16.164 1.66414 15.641 1.67114C14.881 1.68414 14.411 2.00314 14.411 2.30914C14.411 2.80714 15.227 3.05814 16.067 3.60214C17.025 4.22214 17.152 4.77914 17.14 5.38514C17.127 6.64014 16.067 7.87914 13.831 7.87914C12.811 7.86414 12.443 7.77914 11.611 7.48314L11.963 5.85914C12.81 6.21314 13.169 6.32614 13.893 6.32614C14.556 6.32614 15.125 6.05814 15.13 5.59114C15.134 5.25914 14.93 5.09414 14.186 4.68414C13.442 4.27314 12.398 3.70514 12.412 2.56214C12.429 1.10014 13.814 0.119141 15.78 0.119141Z"
                                            fill="#2E2E2E" />
                                    </svg>