<svg xmlns="http://www.w3.org/2000/svg" width="34" height="34" viewBox="0 0 34 34" fill="none">
                        <path d="M26.9876 6.95583C25.6886 5.64415 24.1416 4.60411 22.4366 3.89634C20.7316 3.18857 18.9028 2.82721 17.0568 2.83333C9.3218 2.83333 3.01763 9.1375 3.01763 16.8725C3.01763 19.3517 3.6693 21.76 4.88763 23.885L2.9043 31.1667L10.3418 29.2117C12.396 30.3308 14.7051 30.9258 17.0568 30.9258C24.7918 30.9258 31.096 24.6217 31.096 16.8867C31.096 13.1325 29.6368 9.60499 26.9876 6.95583ZM17.0568 28.5458C14.9601 28.5458 12.906 27.9792 11.1068 26.9167L10.6818 26.6617L6.2618 27.8233L7.43763 23.5167L7.1543 23.0775C5.98916 21.2175 5.37061 19.0673 5.3693 16.8725C5.3693 10.4408 10.611 5.19916 17.0426 5.19916C20.1593 5.19916 23.0918 6.4175 25.2876 8.62749C26.3751 9.70963 27.2369 10.9969 27.8229 12.4147C28.409 13.8325 28.7077 15.3525 28.7018 16.8867C28.7301 23.3183 23.4885 28.5458 17.0568 28.5458ZM23.4601 19.8192C23.106 19.6492 21.3776 18.7992 21.066 18.6717C20.7401 18.5583 20.5135 18.5017 20.2726 18.8417C20.0318 19.1958 19.366 19.9892 19.1676 20.2158C18.9693 20.4567 18.7568 20.485 18.4026 20.3008C18.0485 20.1308 16.9151 19.7483 15.5835 18.5583C14.5351 17.6233 13.841 16.4758 13.6285 16.1217C13.4301 15.7675 13.6001 15.5833 13.7843 15.3992C13.9401 15.2433 14.1385 14.9883 14.3085 14.79C14.4785 14.5917 14.5493 14.4358 14.6626 14.2092C14.776 13.9683 14.7193 13.77 14.6343 13.6C14.5493 13.43 13.841 11.7017 13.5576 10.9933C13.2743 10.3133 12.9768 10.3983 12.7643 10.3842H12.0843C11.8435 10.3842 11.4751 10.4692 11.1493 10.8233C10.8376 11.1775 9.93096 12.0275 9.93096 13.7558C9.93096 15.4842 11.1918 17.1558 11.3618 17.3825C11.5318 17.6233 13.841 21.165 17.3543 22.6808C18.1901 23.0492 18.8418 23.2617 19.3518 23.4175C20.1876 23.6867 20.9526 23.6442 21.5618 23.5592C22.2418 23.46 23.6443 22.7092 23.9276 21.8875C24.2251 21.0658 24.2251 20.3717 24.126 20.2158C24.0268 20.06 23.8143 19.9892 23.4601 19.8192Z" fill="#272727"/>
                    </svg>