<svg xmlns="http://www.w3.org/2000/svg" width="15" height="14" viewBox="0 0 15 14"
                                                                   fill="none">
                                                                <path d="M7.49935 12.251L6.65352 11.4927C5.67157 10.608 4.85977 9.84479 4.2181 9.20312C3.57643 8.56146 3.06602 7.98532 2.68685 7.47471C2.30768 6.96449 2.04285 6.49548 1.89235 6.06771C1.74185 5.63993 1.6664 5.20243 1.66602 4.75521C1.66602 3.84132 1.97227 3.07812 2.58477 2.46562C3.19727 1.85312 3.96046 1.54687 4.87435 1.54688C5.3799 1.54688 5.86115 1.65382 6.3181 1.86771C6.77504 2.0816 7.16879 2.38299 7.49935 2.77187C7.8299 2.38299 8.22365 2.0816 8.6806 1.86771C9.13754 1.65382 9.61879 1.54688 10.1243 1.54688C11.0382 1.54688 11.8014 1.85312 12.4139 2.46562C13.0264 3.07812 13.3327 3.84132 13.3327 4.75521C13.3327 5.20243 13.2572 5.63993 13.1063 6.06771C12.9555 6.49548 12.6906 6.96449 12.3118 7.47471C11.9327 7.98532 11.4223 8.56146 10.7806 9.20312C10.1389 9.84479 9.32713 10.608 8.34518 11.4927L7.49935 12.251ZM7.49935 10.676C8.43268 9.83993 9.20074 9.12282 9.80352 8.52471C10.4063 7.9266 10.8827 7.40665 11.2327 6.96487C11.5827 6.52232 11.8257 6.12837 11.9618 5.78304C12.098 5.43771 12.166 5.0951 12.166 4.75521C12.166 4.17187 11.9716 3.68576 11.5827 3.29687C11.1938 2.90799 10.7077 2.71354 10.1243 2.71354C9.6674 2.71354 9.24449 2.84226 8.8556 3.09971C8.46671 3.35715 8.19935 3.68537 8.05352 4.08437H6.94518C6.79935 3.68576 6.53199 3.35754 6.1431 3.09971C5.75421 2.84187 5.33129 2.71315 4.87435 2.71354C4.29102 2.71354 3.8049 2.90799 3.41602 3.29687C3.02713 3.68576 2.83268 4.17187 2.83268 4.75521C2.83268 5.09548 2.90074 5.43829 3.03685 5.78362C3.17296 6.12896 3.41602 6.52271 3.76602 6.96487C4.11602 7.40704 4.5924 7.92718 5.19518 8.52529C5.79796 9.1234 6.56602 9.84032 7.49935 10.676Z"
                                                                      fill="#444444" />
                                                            </svg>