<svg width="30" height="30" viewBox="0 0 30 30" fill="none" xmlns="http://www.w3.org/2000/svg">
                                    <path d="M5.56275 17.3849L14.2535 25.549C14.5529 25.8301 14.7025 25.9707 14.879 26.0053C14.9585 26.021 15.0403 26.021 15.1198 26.0053C15.2963 25.9707 15.4459 25.8301 15.7453 25.549L24.436 17.3849C26.8813 15.0879 27.1782 11.3079 25.1217 8.65719L24.735 8.15878C22.2748 4.98783 17.3364 5.51962 15.6078 9.14166C15.3635 9.6533 14.6353 9.6533 14.391 9.14166C12.6624 5.51962 7.72406 4.98783 5.26384 8.15879L4.87715 8.65719C2.8206 11.3079 3.11754 15.0879 5.56275 17.3849Z" stroke="white" stroke-width="2"/>
                                </svg>