<svg width="32" height="32" viewBox="0 0 32 32" fill="none" xmlns="http://www.w3.org/2000/svg">
<path d="M5.15198 21.94C5.87998 24.8507 6.24398 26.3053 7.32798 27.1533C8.41332 28 9.91332 28 12.9133 28H19.0867C22.0867 28 23.5867 28 24.6733 27.1533C25.7573 26.3053 26.1213 24.8507 26.848 21.94C27.992 17.364 28.564 15.0773 27.364 13.5387C26.1627 12 23.804 12 19.088 12H12.9133C8.19598 12 5.83865 12 4.63732 13.5387C3.93198 14.4413 3.83732 15.6027 4.11198 17.3333" stroke="white" stroke-width="1.5" stroke-linecap="round"/>
<path d="M26 12.6667L25.0533 9.19333C24.688 7.85333 24.5053 7.184 24.1307 6.67866C23.7571 6.17661 23.2497 5.78986 22.6667 5.56266C22.08 5.33333 21.3867 5.33333 20 5.33333M6 12.6667L6.94667 9.19333C7.312 7.85333 7.49467 7.184 7.86933 6.67866C8.2429 6.17661 8.75025 5.78986 9.33333 5.56266C9.92 5.33333 10.6133 5.33333 12 5.33333" stroke="white" stroke-width="1.5"/>
<path d="M12 5.33333C12 4.97971 12.1405 4.64057 12.3905 4.39052C12.6406 4.14048 12.9797 4 13.3333 4H18.6667C19.0203 4 19.3594 4.14048 19.6095 4.39052C19.8595 4.64057 20 4.97971 20 5.33333C20 5.68696 19.8595 6.02609 19.6095 6.27614C19.3594 6.52619 19.0203 6.66667 18.6667 6.66667H13.3333C12.9797 6.66667 12.6406 6.52619 12.3905 6.27614C12.1405 6.02609 12 5.68696 12 5.33333Z" stroke="white" stroke-width="1.5"/>
</svg>
