<svg width="35" height="34" viewBox="0 0 35 34" fill="none" xmlns="http://www.w3.org/2000/svg">
<path d="M20.6875 10.625L16.4375 6.375L20.6875 2.125M14.2461 23.375L18.4961 27.625L14.2461 31.875" stroke="white" stroke-linecap="round" stroke-linejoin="round"/>
<path d="M7.9375 9.5625C9.69791 9.5625 11.125 8.13541 11.125 6.375C11.125 4.61459 9.69791 3.1875 7.9375 3.1875C6.17709 3.1875 4.75 4.61459 4.75 6.375C4.75 8.13541 6.17709 9.5625 7.9375 9.5625Z" stroke="white" stroke-linecap="round" stroke-linejoin="round"/>
<path d="M27.0625 30.8125C28.8229 30.8125 30.25 29.3854 30.25 27.625C30.25 25.8646 28.8229 24.4375 27.0625 24.4375C25.3021 24.4375 23.875 25.8646 23.875 27.625C23.875 29.3854 25.3021 30.8125 27.0625 30.8125Z" stroke="white" stroke-linecap="round" stroke-linejoin="round"/>
<path d="M17.5 6.375H23.0781C24.1348 6.375 25.1483 6.79478 25.8955 7.542C26.6427 8.28921 27.0625 9.30265 27.0625 10.3594V24.4375M17.4336 27.625H11.8555C10.7987 27.625 9.78531 27.2052 9.03809 26.458C8.29087 25.7108 7.87109 24.6973 7.87109 23.6406V9.5625" stroke="white" stroke-linecap="round" stroke-linejoin="round"/>
</svg>
