<svg width="35" height="34" viewBox="0 0 35 34" fill="none" xmlns="http://www.w3.org/2000/svg">
<path d="M17.5 27.8432L16.4262 26.8728C14.1142 24.761 12.2017 22.9533 10.6887 21.4498C9.17661 19.9453 7.98284 18.6183 7.10734 17.4689C6.23184 16.3195 5.61984 15.2806 5.27134 14.3523C4.92284 13.4239 4.74906 12.4884 4.75 11.5458C4.75 9.74384 5.362 8.23084 6.586 7.00684C7.81 5.78284 9.323 5.17084 11.125 5.17084C12.3717 5.17084 13.5404 5.48959 14.6313 6.12709C15.7221 6.76459 16.6783 7.69203 17.5 8.90942C18.3217 7.69203 19.2779 6.76459 20.3688 6.12709C21.4596 5.48959 22.6283 5.17084 23.875 5.17084C25.677 5.17084 27.19 5.78284 28.414 7.00684C29.638 8.23084 30.25 9.74384 30.25 11.5458C30.25 12.4865 30.0762 13.4215 29.7287 14.3508C29.3802 15.2821 28.7682 16.3219 27.8927 17.4703C27.0172 18.6188 25.8276 19.9453 24.3241 21.4498C22.8205 22.9533 20.9033 24.761 18.5724 26.8728L17.5 27.8432ZM17.5 25.925C19.7667 23.8756 21.6319 22.1208 23.0958 20.6607C24.5597 19.2006 25.7167 17.9326 26.5667 16.8569C27.4167 15.7812 28.0069 14.8297 28.3375 14.0023C28.6681 13.1731 28.8333 12.3543 28.8333 11.5458C28.8333 10.1292 28.3611 8.94862 27.4167 8.00417C26.4722 7.05973 25.2917 6.5875 23.875 6.5875C22.7473 6.5875 21.7066 6.90956 20.7527 7.55367C19.7988 8.19778 18.9459 9.16725 18.1942 10.4621H16.8087C16.0371 9.14931 15.179 8.17512 14.2346 7.5395C13.2901 6.90484 12.2541 6.5875 11.1264 6.5875C9.72864 6.5875 8.55281 7.05973 7.59892 8.00417C6.64503 8.94862 6.16761 10.1292 6.16667 11.5458C6.16667 12.3543 6.33195 13.1731 6.6625 14.0023C6.99306 14.8316 7.58334 15.7831 8.43334 16.8569C9.28334 17.9308 10.4403 19.1939 11.9042 20.6465C13.3681 22.0991 15.2333 23.8586 17.5 25.925Z" fill="white"/>
</svg>
